<?xml version="1.0" encoding="utf-8"?>
<!-- Generator: Adobe Illustrator 16.0.0, SVG Export Plug-In . SVG Version: 6.00 Build 0)  -->
<!DOCTYPE svg PUBLIC "-//W3C//DTD SVG 1.1//EN" "http://www.w3.org/Graphics/SVG/1.1/DTD/svg11.dtd">
<svg version="1.1" id="Capa_1" xmlns="http://www.w3.org/2000/svg" xmlns:xlink="http://www.w3.org/1999/xlink" x="0px" y="0px"
	 width="48px" height="48px" viewBox="0 0 48 48" enable-background="new 0 0 48 48" xml:space="preserve">
<path fill="#FFFFFF" d="M24,13.3L15.8,33.15l0.25,0.25L24,29.8l7.95,3.601l0.25-0.25L24,13.3z M24,44
	c-2.833,0-5.467-0.508-7.9-1.525c-2.434-1.016-4.55-2.425-6.35-4.225s-3.208-3.916-4.225-6.35S4,26.834,4,24
	c0-2.8,0.508-5.417,1.525-7.85C6.542,13.717,7.95,11.6,9.75,9.8c1.8-1.8,3.917-3.216,6.35-4.25C18.533,4.517,21.167,4,24,4
	c2.8,0,5.416,0.517,7.85,1.55C34.283,6.583,36.4,8,38.2,9.8c1.8,1.8,3.216,3.917,4.25,6.35C43.483,18.583,44,21.2,44,24
	c0,2.834-0.517,5.467-1.55,7.9c-1.034,2.434-2.45,4.55-4.25,6.35s-3.917,3.209-6.351,4.225C29.416,43.492,26.8,44,24,44z M24,24
	L24,24L24,24L24,24L24,24L24,24L24,24L24,24L24,24z M24,7c-4.833,0-8.875,1.625-12.125,4.875S7,19.167,7,24
	c0,4.834,1.625,8.875,4.875,12.125S19.167,41,24,41c4.834,0,8.875-1.625,12.125-4.875S41,28.834,41,24
	c0-4.833-1.625-8.875-4.875-12.125S28.834,7,24,7z"/>
</svg>
