<?xml version="1.0" encoding="utf-8"?>
<!-- Generator: Adobe Illustrator 16.0.0, SVG Export Plug-In . SVG Version: 6.00 Build 0)  -->
<!DOCTYPE svg PUBLIC "-//W3C//DTD SVG 1.1//EN" "http://www.w3.org/Graphics/SVG/1.1/DTD/svg11.dtd">
<svg version="1.1" id="Layer_1" xmlns="http://www.w3.org/2000/svg" xmlns:xlink="http://www.w3.org/1999/xlink" x="0px" y="0px"
	 width="612px" height="671px" viewBox="0 59.5 612 671" enable-background="new 0 59.5 612 671" xml:space="preserve">
<g>
	<g>
		<path d="M565.643,90H46.358c-15.363,0-27.819,12.456-27.819,27.819v111.275c0,7.839,3.307,15.313,9.106,20.586l194.898,177.166
			v247.335c0,9.643,4.991,18.597,13.192,23.665c4.469,2.76,9.54,4.154,14.627,4.154c4.252,0,8.516-0.974,12.44-2.938l111.275-55.638
			c9.425-4.713,15.378-14.344,15.378-24.881V426.846L584.356,249.68c5.799-5.272,9.105-12.747,9.105-20.586V117.819
			C593.461,102.456,581.006,90,565.643,90z M342.925,393.955c-5.8,5.272-9.106,12.747-9.106,20.586v186.813l-55.638,27.818V414.541
			c0-7.84-3.307-15.314-9.105-20.586L118.318,256.913h375.365L342.925,393.955z M537.823,201.275H74.176v-55.638h463.647V201.275z"
			/>
	</g>
</g>
</svg>
