<?xml version="1.0" encoding="utf-8"?>
<!-- Generator: Adobe Illustrator 16.0.0, SVG Export Plug-In . SVG Version: 6.00 Build 0)  -->
<!DOCTYPE svg PUBLIC "-//W3C//DTD SVG 1.1//EN" "http://www.w3.org/Graphics/SVG/1.1/DTD/svg11.dtd">
<svg version="1.1" id="Layer_1" xmlns="http://www.w3.org/2000/svg" xmlns:xlink="http://www.w3.org/1999/xlink" x="0px" y="0px"
	 width="446.666px" height="124.667px" viewBox="0 0 446.666 124.667" enable-background="new 0 0 446.666 124.667"
	 xml:space="preserve">
<g>
	<path fill="#FFFFFF" d="M3532.194-1394.837c0.063,0.255,0.078,0.546,0.09,0.811c0.074,1.082-0.338,2.27-1.061,3.103
		c-0.539,0.599-1.135,1.046-1.832,1.381c0.156,0.464,0.223,0.946,0.225,1.439l0.73,3.6c0.117,0.606,0.248,1.222,0.367,1.84
		l0.248,1.849c0.158,1.239,0.367,2.469,0.488,3.715l0.291,3.736c0.246,4.976,0.18,9.984-0.308,14.953
		c-0.477,4.967-1.289,9.906-2.438,14.762c-0.549,2.43-1.223,4.83-1.951,7.229c-0.73,2.385-1.678,4.757-2.482,7.036
		c-3.301,9.236-6.08,18.681-7.151,28.397c-0.281,2.432-0.507,4.879-0.716,7.337c-0.194,2.455-0.524,4.978-0.696,7.348
		c-0.142,2.404-0.088,4.825,0.157,7.223c0.267,2.354,0.707,4.793,1.494,6.939c0.629,1.188,1.223,2.396,1.662,3.715
		c0.221,0.665,0.406,1.352,0.533,2.075c0.057,0.363,0.088,0.744,0.096,1.13c-0.002,0.201-0.016,0.404-0.043,0.609
		c0,0.066-0.022,0.151-0.035,0.234c0.023,0.049,0.033,0.101,0.043,0.152c0.066,0.694-0.09,1.406-0.375,2.009
		c-0.299,0.604-0.684,1.106-1.104,1.561c-0.842,0.896-1.799,1.548-2.785,2.125c-1.963,1.112-4.047,1.873-6.141,2.448
		c-4.199,1.155-8.521,1.599-12.814,1.648c-4.291-0.018-8.613-0.402-12.822-1.53c-2.1-0.559-4.188-1.292-6.164-2.396
		c-0.989-0.558-1.955-1.2-2.808-2.092c-0.419-0.44-0.821-0.938-1.11-1.537c-0.28-0.56-0.436-1.225-0.401-1.885
		c-0.025-0.063-0.035-0.114-0.05-0.191c-0.022-0.116-0.056-0.217-0.063-0.322c-0.027-0.209-0.039-0.406-0.037-0.607
		c-0.007-0.387,0.025-0.767,0.076-1.137c0.1-0.727,0.287-1.418,0.506-2.088c0.417-1.309,0.996-2.542,1.609-3.729
		c0.559-1.604,0.928-3.438,1.202-5.201c0.259-1.785,0.392-3.601,0.402-5.42c0.012-1.818-0.071-3.633-0.299-5.445
		c-0.218-1.828-0.423-3.727-0.591-5.578c-0.341-3.714-0.711-7.383-1.313-11.008c-0.604-3.637-1.404-7.236-2.371-10.805
		c-0.963-3.555-2.06-7.099-3.303-10.586c-0.593-1.757-1.269-3.471-1.896-5.206c-0.669-1.741-1.312-3.556-1.868-5.345
		c-2.178-7.021-3.603-14.229-4.31-21.52c-0.577-0.224-1.079-0.607-1.463-1.148c-1.423-1.984-0.886-5.44-0.813-5.828
		c1.34-6.309-0.029-11.281-0.041-11.333c-1.229-5.08-0.996-8.945,0.698-11.528c0.763-1.176,1.69-1.834,2.408-2.199l-0.09-0.117
		c-0.224-0.397-0.457-0.78-0.656-1.195c-0.367-0.865-0.598-1.862-0.408-2.887c0.175-1.036,0.791-1.93,1.502-2.547
		c0.588-0.486,1.183-0.868,1.86-1.158c0.048-0.584,0.163-1.168,0.434-1.713c0.325-0.731,0.849-1.42,1.492-1.891
		c0.631-0.469,1.344-0.793,2.063-1.012c0.202-0.051,0.396-0.088,0.603-0.128c-0.513-0.797-0.845-1.682-0.979-2.591
		c-0.198-1.445,0.058-2.896,0.628-4.168c0.506-1.26,1.526-2.551,2.858-3.127c1.144-0.514,2.359-0.654,3.566-0.553
		c0.035-0.861,0.137-1.723,0.391-2.56c0.301-1.006,0.85-1.979,1.598-2.738c1.527-1.576,3.646-2.223,5.658-2.529
		c1.019-0.129,1.99-0.209,3.103-0.129c1.092,0.125,2.188,0.542,3.069,1.24c0.896,0.696,1.541,1.627,1.996,2.608
		c0.345,0.735,0.591,1.464,0.74,2.248c0.055,0.004,0.105-0.006,0.16-0.003c0.365,0.022,0.707-0.003,1.074,0.101
		c0.719,0.129,1.438,0.525,1.94,1.07c0.507,0.543,0.808,1.207,0.974,1.855c0.002,0.014,0.002,0.014,0.004,0.026
		c0.188-0.343,0.42-0.668,0.682-0.972c0.365-0.392,0.779-0.738,1.233-1.013c0.453-0.287,0.882-0.489,1.468-0.642l0.051-0.01
		c0.777-0.203,1.623-0.246,2.438-0.029c0.808,0.232,1.531,0.668,2.138,1.18c0.621,0.521,1.137,1.117,1.575,1.74
		c0.15,0.225,0.285,0.438,0.42,0.654c0.771-1.069,1.713-1.999,2.836-2.695c0.394-0.249,0.793-0.459,1.224-0.649
		c0.225-0.083,0.407-0.172,0.715-0.244l0.672-0.116c0.453-0.086,0.906-0.16,1.379-0.131h0.693c0.24-0.006,0.467,0.059,0.699,0.094
		c0.233,0.034,0.469,0.069,0.705,0.118l0.674,0.244c0.455,0.14,0.856,0.423,1.272,0.65c0.771,0.532,1.472,1.187,1.99,1.941
		c0.555,0.735,0.978,1.536,1.312,2.366c0.176,0.434,0.313,0.875,0.452,1.316c0.035-0.021,0.072-0.041,0.107-0.062
		c0.45-0.22,0.924-0.405,1.471-0.483c0.521-0.072,1.103-0.037,1.629,0.143c0.461,0.164,0.844,0.358,1.236,0.724
		c0.942,0.326,1.897,0.704,2.674,1.409c0.858,0.717,1.549,1.666,1.897,2.721c0.373,1.037,0.502,2.121,0.478,3.168
		c-0.021,0.727-0.092,1.407-0.233,2.116c0.223,0.05,0.436,0.116,0.643,0.224c0.563,0.279,0.994,0.717,1.322,1.176
		c0.315,0.473,0.545,0.963,0.707,1.453C3532.082-1395.351,3532.143-1395.107,3532.194-1394.837z"/>
	<g>
		<path fill="none" d="M3487.869-1418.424c0.502,0.502,0.924,1.104,1.222,1.792
			C3488.791-1417.319,3488.371-1417.922,3487.869-1418.424z"/>
		<path fill="none" d="M3483.152-1419.723c-0.2,0.014-0.403,0.019-0.601,0.039c-0.252,0.029-0.505,0.066-0.756,0.109
			c0.25-0.043,0.504-0.079,0.756-0.107C3482.748-1419.703,3482.95-1419.707,3483.152-1419.723z"/>
		<path d="M3487.605-1418.717c-0.021-0.018-0.05-0.025-0.071-0.043C3487.555-1418.742,3487.584-1418.734,3487.605-1418.717
			L3487.605-1418.717z"/>
		<path d="M3477.549-1417.676c1.109-1.084,2.654-1.629,4.246-1.898c-1.594,0.268-3.133,0.814-4.249,1.898
			c-0.651,0.613-1.102,1.389-1.396,2.243C3476.446-1416.286,3476.897-1417.063,3477.549-1417.676z"/>
		<path d="M3487.606-1418.715c0-0.001-0.001-0.002-0.001-0.002c0.101,0.084,0.172,0.2,0.265,0.293
			C3487.778-1418.517,3487.705-1418.633,3487.606-1418.715z"/>
		<path d="M3487.533-1418.76c-0.631-0.512-1.388-0.834-2.215-0.971c-0.666-0.07-1.421-0.047-2.167,0.008
			c0.745-0.053,1.501-0.074,2.166-0.004C3486.146-1419.592,3486.906-1419.271,3487.533-1418.76z"/>
		<g>
			<path fill="#0A0A0A" d="M3518.153-1264.584c0.002,0.013,0.002,0.013,0.002,0.013c0.014-0.002,0.012-0.016,0.012-0.016
				L3518.153-1264.584z M3532.008-1395.603c-0.162-0.49-0.392-0.98-0.707-1.453c-0.328-0.459-0.76-0.896-1.322-1.176
				c-0.207-0.107-0.42-0.174-0.643-0.224c0.143-0.709,0.213-1.39,0.233-2.116c0.024-1.047-0.104-2.131-0.478-3.168
				c-0.35-1.055-1.039-2.004-1.897-2.721c-0.774-0.705-1.729-1.083-2.674-1.409c-0.394-0.365-0.775-0.56-1.236-0.724
				c-0.527-0.18-1.108-0.215-1.629-0.143c-0.547,0.078-1.021,0.264-1.471,0.483c-0.035,0.021-0.072,0.041-0.107,0.062
				c-0.139-0.441-0.276-0.883-0.452-1.316c-0.334-0.83-0.757-1.631-1.312-2.366c-0.521-0.755-1.219-1.409-1.99-1.941
				c-0.416-0.228-0.817-0.511-1.272-0.65l-0.674-0.244c-0.236-0.049-0.472-0.084-0.705-0.118c-0.232-0.035-0.459-0.1-0.699-0.094
				h-0.693c-0.473-0.029-0.926,0.045-1.379,0.131l-0.672,0.116c-0.307,0.072-0.49,0.161-0.715,0.244
				c-0.431,0.19-0.83,0.4-1.224,0.649c-1.123,0.696-2.065,1.626-2.836,2.695c-0.135-0.215-0.27-0.43-0.42-0.654
				c-0.438-0.623-0.955-1.219-1.575-1.74c-0.605-0.512-1.33-0.947-2.138-1.18c-0.815-0.217-1.662-0.174-2.438,0.029l-0.051,0.01
				c-0.586,0.152-1.015,0.354-1.468,0.642c-0.455,0.274-0.868,0.621-1.233,1.013c-0.262,0.304-0.494,0.629-0.682,0.972
				c-0.002-0.013-0.002-0.013-0.004-0.026c-0.166-0.648-0.468-1.313-0.974-1.855c-0.504-0.545-1.223-0.941-1.94-1.07
				c-0.367-0.104-0.709-0.078-1.074-0.101c-0.055-0.003-0.105,0.007-0.16,0.003c-0.149-0.784-0.396-1.513-0.74-2.248
				c-0.455-0.981-1.102-1.912-1.996-2.608c-0.883-0.698-1.979-1.115-3.069-1.24c-1.111-0.08-2.084,0-3.103,0.129
				c-2.012,0.307-4.131,0.953-5.658,2.529c-0.748,0.759-1.297,1.732-1.598,2.738c-0.254,0.837-0.354,1.698-0.391,2.561
				c-1.207-0.103-2.424,0.039-3.566,0.553c-1.332,0.576-2.354,1.867-2.858,3.127c-0.57,1.271-0.826,2.723-0.628,4.168
				c0.134,0.909,0.466,1.794,0.979,2.591c-0.206,0.04-0.398,0.077-0.603,0.128c-0.722,0.219-1.434,0.543-2.063,1.012
				c-0.645,0.471-1.167,1.159-1.492,1.891c-0.271,0.545-0.386,1.129-0.434,1.713c-0.679,0.29-1.271,0.672-1.86,1.158
				c-0.711,0.617-1.327,1.511-1.502,2.547c-0.188,1.024,0.041,2.021,0.408,2.887c0.199,0.415,0.435,0.798,0.656,1.195l0.09,0.117
				c-0.718,0.365-1.646,1.023-2.408,2.199c-1.694,2.583-1.928,6.448-0.698,11.528c0.012,0.052,1.381,5.024,0.041,11.333
				c-0.072,0.388-0.609,3.844,0.813,5.828c0.384,0.541,0.886,0.925,1.463,1.147c0.707,7.291,2.132,14.498,4.31,21.521
				c0.558,1.789,1.199,3.604,1.868,5.345c0.628,1.735,1.304,3.449,1.896,5.206c1.243,3.487,2.34,7.031,3.303,10.586
				c0.967,3.568,1.767,7.168,2.371,10.805c0.603,3.625,0.974,7.294,1.313,11.008c0.168,1.852,0.373,3.75,0.591,5.578
				c0.228,1.813,0.311,3.627,0.299,5.445c-0.012,1.819-0.144,3.635-0.402,5.42c-0.274,1.764-0.645,3.598-1.202,5.201
				c-0.613,1.188-1.192,2.42-1.609,3.729c-0.219,0.67-0.406,1.361-0.506,2.088c-0.051,0.37-0.083,0.75-0.076,1.137
				c-0.002,0.201,0.01,0.398,0.037,0.607c0.007,0.104,0.039,0.206,0.063,0.322c0.015,0.077,0.023,0.129,0.05,0.191
				c-0.033,0.66,0.121,1.325,0.401,1.885c0.289,0.6,0.691,1.097,1.11,1.537c0.854,0.892,1.817,1.534,2.808,2.092
				c1.976,1.104,4.064,1.837,6.164,2.396c4.209,1.128,8.531,1.513,12.822,1.53c4.293-0.05,8.615-0.493,12.814-1.648
				c2.094-0.575,4.178-1.336,6.141-2.448c0.986-0.577,1.943-1.229,2.785-2.125c0.42-0.454,0.805-0.956,1.104-1.561
				c0.285-0.603,0.441-1.314,0.375-2.009c-0.01-0.052-0.02-0.104-0.043-0.152c0.013-0.083,0.035-0.168,0.035-0.234
				c0.027-0.205,0.041-0.408,0.043-0.609c-0.008-0.386-0.039-0.767-0.096-1.13c-0.127-0.724-0.313-1.41-0.533-2.075
				c-0.438-1.318-1.033-2.526-1.662-3.715c-0.787-2.146-1.229-4.586-1.494-6.939c-0.246-2.397-0.299-4.818-0.157-7.223
				c0.172-2.371,0.502-4.893,0.696-7.348c0.209-2.458,0.435-4.905,0.716-7.337c1.071-9.717,3.852-19.161,7.151-28.397
				c0.806-2.279,1.752-4.651,2.482-7.036c0.729-2.397,1.402-4.798,1.951-7.228c1.149-4.855,1.963-9.795,2.438-14.762
				c0.486-4.969,0.554-9.978,0.308-14.953l-0.291-3.736c-0.121-1.246-0.33-2.476-0.488-3.715l-0.248-1.849
				c-0.119-0.618-0.25-1.233-0.367-1.84l-0.73-3.6c-0.002-0.493-0.067-0.976-0.225-1.439c0.697-0.335,1.293-0.782,1.832-1.381
				c0.723-0.833,1.135-2.021,1.061-3.103c-0.012-0.265-0.026-0.556-0.09-0.812
				C3532.143-1395.107,3532.082-1395.351,3532.008-1395.603z M3527.117-1345.906c-0.168,0.794-0.35,1.59-0.557,2.391
				c-0.133,0.56-0.281,1.109-0.416,1.656c-0.209,0.788-0.418,1.577-0.643,2.354c-0.164,0.539-0.316,1.063-0.48,1.602
				c-0.25,0.85-0.529,1.691-0.818,2.549c-0.145,0.428-0.285,0.883-0.443,1.314c-0.446,1.287-0.922,2.567-1.426,3.84
				c-3.389,9.334-6.127,18.996-7.219,28.958c-0.121,1.173-0.229,2.354-0.336,3.537c-0.008,0.095-0.016,0.19-0.025,0.285
				c-0.104,1.196-0.194,2.39-0.287,3.582c-0.151,2.474-0.455,4.856-0.604,7.423c-0.193,4.486,0.133,8.965,1.494,13.338
				c0.176,0.567,0.35,1.121,0.563,1.682l0.007,0.039l0.037,0.047c0.366,0.664,0.711,1.332,1.026,2.006
				c0.228,0.491,0.439,0.971,0.629,1.469c0.08,0.212,0.136,0.428,0.205,0.655c0.111,0.366,0.211,0.747,0.283,1.121
				c0.055,0.283,0.086,0.585,0.101,0.862c-0.002,0.135-0.004,0.268-0.021,0.391c0.006,0.026-0.004,0.041,0,0.067
				c-0.008,0.028-0.014,0.069-0.021,0.099c0.002,0.012-0.009,0.027-0.007,0.04l0.004,0.013l-0.014,0.003
				c0.002,0.013,0.002,0.013,0.002,0.013c-0.063,0.159-0.072,0.321-0.039,0.488l0.012,0.064c-0.092,0.285-0.246,0.527-0.448,0.781
				c-0.23,0.271-0.525,0.542-0.867,0.781c-0.271,0.186-0.57,0.363-0.873,0.527c-0.496,0.27-1.021,0.518-1.586,0.72
				c-1.787,0.704-3.732,1.146-5.68,1.505c-1.293,0.223-2.584,0.391-3.894,0.535c-0.69,0.08-1.383,0.172-2.07,0.211
				c-2.01,0.172-4.022,0.266-6.041,0.252c-2.014,0.026-4.028-0.04-6.034-0.189c-0.72-0.049-1.429-0.127-2.136-0.19
				c-1.28-0.142-2.566-0.295-3.837-0.505c-1.962-0.344-3.9-0.773-5.699-1.443c-0.476-0.176-0.938-0.367-1.382-0.589
				c-0.386-0.193-0.746-0.404-1.085-0.634c-0.712-0.504-1.274-1.077-1.406-1.76l-0.002-0.013c0.004-0.121-0.031-0.234-0.08-0.345
				c0.016,0.01,0.019,0.022,0.014-0.003l-0.012-0.064c-0.012-0.052-0.034-0.101-0.03-0.155c-0.003-0.012,0.007-0.027,0.005-0.041
				c-0.021-0.104-0.02-0.236-0.017-0.357c0-0.28,0.039-0.568,0.091-0.858c0.1-0.594,0.266-1.187,0.485-1.776
				c0.413-1.188,0.993-2.342,1.629-3.479l0.031-0.047l-0.002-0.013l0.021-0.03c0.233-0.594,0.414-1.188,0.596-1.771
				c0.38-1.288,0.645-2.555,0.863-3.853c0.125-0.732,0.199-1.455,0.274-2.178c0.135-1.174,0.229-2.355,0.256-3.535
				c0.035-1.904-0.012-3.818-0.217-5.716c-0.187-1.874-0.387-3.679-0.545-5.546c-0.18-2.115-0.377-4.256-0.625-6.385
				c-0.188-1.607-0.392-3.211-0.656-4.803c-0.584-3.735-1.409-7.41-2.414-11.037c-0.028-0.075-0.043-0.152-0.069-0.228
				c-0.439-1.585-0.903-3.166-1.406-4.739c-0.246-0.795-0.517-1.57-0.774-2.362c-0.209-0.601-0.395-1.22-0.604-1.821l0.011-0.016
				c0,0,12.021,32.181,8.207,50.773c0,0-0.819,1.158,2.15,2.298c-0.127-0.042-0.269-0.081-0.408-0.108
				c-0.027-0.008-0.059-0.029-0.086-0.037c-0.055-0.002-0.121-0.004-0.176-0.006c-0.469-0.07-0.929-0.035-1.367,0.115
				c-0.151,0.043-0.299,0.111-0.446,0.18c-0.121,0.063-0.237,0.152-0.356,0.229c-0.06,0.039-0.115,0.09-0.174,0.141
				c-0.094,0.07-0.186,0.143-0.262,0.236c-0.212,0.215-0.306,0.354-0.423,0.51c-0.02,0.043-0.039,0.074-0.073,0.107
				c-0.27,0.398-0.513,0.807-0.709,1.245c-0.407,0.866-0.654,1.809-0.715,2.742c-0.029,0.474-0.031,0.954,0.018,1.412l0.051,0.258
				c0.014,0.144,0.027,0.288,0.056,0.431l0.032,0.166c0.007,0.039,0.021,0.117,0.05,0.191l0.015,0.078
				c0.063,0.188,0.162,0.355,0.271,0.508c0.216,0.293,0.512,0.504,0.83,0.643c0.015-0.003,0.029,0.008,0.045,0.018l0.625,0.201
				l1.201,0.344l0.018,0.01c0.803,0.22,1.615,0.424,2.44,0.612c2.024,0.452,4.077,0.78,6.143,0.958
				c0.625,0.053,1.26,0.091,1.893,0.117c0.634,0.025,1.275,0.035,1.916,0.031c-0.002-0.012-0.016-0.01-0.016-0.01
				c-0.509-0.076-1.021-0.164-1.519-0.256c-2.752-0.486-5.453-1.196-8.078-2.068c-0.342-0.107-0.688-0.241-1.03-0.362
				c3.737,1.032,14.899,0.315,14.899,0.315c-6.17-0.137-11.24-2.955-13.283-4.272c1.726,0.844,3.584,1.408,5.467,1.821
				c1.667,0.334,3.357,0.517,5.056,0.592c0.916,0.037,1.826,0.049,2.729,0.023c0.436-0.031,0.871-0.062,1.307-0.092
				c0.291-0.016,0.565-0.041,0.854-0.07c0.58-0.045,1.156-0.102,1.728-0.198c0.646-0.11,1.291-0.155,1.932-0.304l1.896-0.418
				c0.632-0.121,1.25-0.307,1.879-0.508l1.843-0.568c0.5-0.176,0.996-0.378,1.493-0.567c0.234-0.099,0.482-0.199,0.73-0.301
				l0.023-0.005c-2.931,3.648-7.713,4.621-7.713,4.621c3.838,0.305,9.073-1.649,9.073-1.649c-1.979,2.905-10.586,4.491-11.686,4.677
				l-0.115,0.021c1.711,0.354,3.742,0.15,5.764-0.307c0.015-0.002,0.015-0.002,0.015-0.002c1.407-0.178,2.795-0.403,4.176-0.722
				c1.369-0.317,2.693-0.718,4.02-1.187c0.289-0.096,0.568-0.177,0.84-0.295c1.095-0.424,1.841-1.609,1.754-2.822
				c-0.039-0.34-0.084-0.505-0.116-0.752c-0.027-0.074-0.043-0.152-0.058-0.229c-0.041-0.14-0.067-0.28-0.106-0.42
				c-0.088-0.384-0.223-0.732-0.346-1.097c-0.025-0.062-0.037-0.125-0.063-0.188c-0.051-0.124-0.102-0.248-0.152-0.372
				c-0.149-0.372-0.313-0.741-0.506-1.104c-0.154-0.318-0.305-0.623-0.483-0.922c-0.222-0.386-0.453-0.768-0.711-1.133l-0.054-0.069
				c-0.004-0.013-0.02-0.023-0.032-0.034c-0.023-0.049-0.072-0.094-0.107-0.14c-0.104-0.114-0.229-0.21-0.352-0.294
				c-0.271-0.161-0.568-0.25-0.865-0.26c-0.106-0.007-0.213,0-0.313,0.02c-0.043-0.005-0.097-0.008-0.136,0
				c-0.004-0.014,1.658-2.496-0.047-8.033c-1.713-5.574,0.699-33.543,7.063-46.508c0,0,4.67-9.553,8.035-19.777
				C3527.281-1346.646,3527.207-1346.271,3527.117-1345.906z M3486.315-1267.39c3.746,0.376,7.994,0.094,7.994,0.094
				c1.117,0.4,2.467,0.608,3.887,0.695c-0.449,0.021-0.898,0.053-1.336,0.07c-0.879,0.01-1.752-0.01-2.611-0.033
				c-1.6-0.053-3.193-0.146-4.783-0.35c-0.041-0.006-0.08-0.011-0.135-0.014c-0.082-0.011-0.164-0.021-0.26-0.03
				c-0.658-0.087-1.318-0.187-1.979-0.288C3486.83-1267.288,3486.578-1267.347,3486.315-1267.39z M3525.864-1390.175
				c-2.262,4.282-11.94,5.007-11.94,5.007c6.903,0.891,11.514-1.464,11.782-1.597c-0.012,0.016-0.034,0.034-0.045,0.049
				c-0.307,0.286-0.614,0.559-0.942,0.797c-0.896,0.68-1.896,1.245-2.939,1.727c-0.676,0.316-1.366,0.609-2.063,0.863
				c-1.785,0.65-3.633,1.126-5.494,1.511c-0.928,0.179-1.857,0.344-2.805,0.485c-0.313,0.047-0.644,0.07-0.957,0.104
				c-0.611,0.078-1.223,0.168-1.84,0.221c0.993-0.045,2.004-0.132,3.012-0.245c0.875-0.103,1.748-0.216,2.615-0.356l0.207-0.039
				c0.881-0.143,1.743-0.309,2.612-0.516l0.013-0.002c0.936-0.207,1.848-0.463,2.754-0.756c0.014-0.003,0.014-0.003,0.024-0.006
				c0.455-0.141,0.916-0.311,1.365-0.476c0.11-0.048,0.233-0.099,0.346-0.146c0,0,0,0,0.014-0.003c0.16-0.058,0.31-0.126,0.47-0.197
				c0.014-0.002,0.014-0.002,0.014-0.002c0.555-0.24,1.106-0.494,1.637-0.795c0.012-0.003,0.012-0.003,0.025-0.006
				c-3.689,2.766-10.64,4.488-11.162,4.616c6.856-0.743,11.069-2.661,13.51-4.292c-0.045,0.049-0.078,0.082-0.123,0.131
				c-0.025,0.004-0.035,0.02-0.049,0.021c-0.229,0.205-0.474,0.398-0.716,0.592c-0.143,0.094-0.256,0.196-0.397,0.291
				c-0.07,0.053-0.144,0.094-0.215,0.135c-0.306,0.219-0.625,0.427-0.949,0.623c-0.01,0.015-0.023,0.018-0.033,0.033
				c-0.326,0.182-0.658,0.326-0.986,0.496c-2.049,1.088-4.25,1.939-6.492,2.637c-0.102,0.033-0.217,0.055-0.317,0.088
				c-0.629,0.201-1.287,0.395-1.935,0.572c0.748-0.144,1.519-0.305,2.26-0.475c1.91-0.42,3.789-0.929,5.619-1.627
				c0.76-0.28,1.517-0.586,2.25-0.94c0.803-0.408,1.603-0.842,2.354-1.374c0.047-0.035,0.104-0.086,0.164-0.125
				c0.223-0.162,0.44-0.338,0.659-0.527c0.013-0.002,0.011-0.016,0.011-0.016c0.219-0.176,0.422-0.375,0.625-0.574
				c-1.054,1.551-3.441,3.854-8.718,5.322c0,0,2.248,1.197,8.162-1.047c0,0-1.055,3.488-6.094,4.51c0,0,2.06,0.767,6.107-1.027
				c0,0-3.162,3.279-6.719,4.444c0,0,5.606-0.503,9.065-2.798c0.012,0.199,0.021,0.396,0.035,0.607
				c0.02,0.236,0.026,0.488,0.037,0.741c-4.25,3.048-8.504,3.224-8.504,3.224c2.569,19.637-6.963,45.446-6.963,45.446
				c-10.326,30.517-2.326,49.069-2.326,49.069c-9.307,3.352-15.877,2.944-19.728,2.027c-0.014,0.003-0.014,0.003-0.014,0.003
				c-0.041-0.006-0.068-0.014-0.098-0.021l0.064-0.013c0.282,0.013,0.575,0.01,0.868,0.007c0.187-0.009,0.371-0.018,0.558-0.026
				c0.674-0.036,1.346-0.085,2.012-0.174c0.051-0.01,0.104-0.006,0.156-0.016c0.573-0.07,1.131-0.164,1.684-0.271
				c0.738-0.128,1.467-0.295,2.176-0.498c0.271-0.065,0.525-0.114,0.791-0.192c-1.545,0.297-3.111,0.424-4.68,0.459
				c-1.346,0.018-2.686-0.072-4-0.234c-0.217-0.023-0.434-0.036-0.641-0.063c-0.013,0.003-0.013,0.003-0.023,0.005
				c-0.084-0.01-0.168-0.035-0.266-0.055c-0.193-0.031-0.39-0.073-0.58-0.104c0.287,0.039,0.561,0.066,0.836,0.107
				c7.821,0.954,14.041-1.724,14.041-1.724c-0.148-0.706-0.285-1.415-0.398-2.142c0.014-0.002,0.014-0.002,0.025-0.004
				c0.188,0.017,0.381,0.033,0.571,0.051c1.754,0.17,3.468,0.455,5.283,0.801c-0.205-0.16-0.432-0.291-0.658-0.435
				c-1.325-0.854-2.84-1.431-4.371-1.818c-0.307-0.075-0.598-0.126-0.899-0.175c-0.057-0.016-0.127-0.028-0.182-0.031
				c-2.523-20.501,7.573-49.57,7.573-49.57c7.113-20.816,5.707-39.607,5.707-39.607l-4.123,0.725
				c-0.614,12.648-4.717,28.424-4.975,29.382c1.209-14.151,1.51-28.502,1.51-28.502c-6.879,1.522-13.207,1.964-18.791,1.821
				c-11.614-0.307-20.01-3.195-23.375-4.578c8.226,2.547,16.156,3.44,23.154,3.498c15.102,0.104,25.887-3.759,25.887-3.759
				c-9.779,2.013-21.631,0.884-26.576,0.245c-1.3-0.165-2.125-0.287-2.305-0.318c0.756,0.041,1.512,0.083,2.267,0.111
				c12.711,0.523,22.758-2.383,22.758-2.383c-9.688,1.795-18.586,0.526-23.334-0.472c-2.254-0.476-3.59-0.886-3.59-0.886
				c1.194,0.104,2.327,0.153,3.457,0.189c11.67,0.39,20.032-2.447,20.032-2.447c-6.903,1.261-13.934,1.035-19.819,0.297
				c0.082-0.002,0.147-0.002,0.229,0.009c0.858,0.021,1.719,0.044,2.574,0.053c0.842-0.001,1.68-0.016,2.518-0.042
				c0.386-0.008,0.787-0.005,1.173-0.013c0.969-0.038,1.918-0.101,2.881-0.166c0.291-0.016,0.584-0.02,0.885-0.05
				c1.027-0.077,2.064-0.17,3.086-0.285c0.211-0.014,0.408-0.025,0.604-0.05c-0.834,0.04-1.67,0.067-2.496,0.079
				c-0.396,0.023-0.793,0.045-1.178,0.053c-0.654,0.006-1.297-0.004-1.951,0.001c-0.602-0.005-1.215,0.007-1.832-0.009
				c-0.537-0.017-1.075-0.047-1.614-0.063c-0.713-0.023-1.425-0.047-2.142-0.083c-0.715-0.049-1.424-0.113-2.143-0.176
				c-0.478-0.043-0.935-0.062-1.396-0.105c-0.123-0.018-0.244-0.021-0.367-0.037c-0.545-0.055-1.082-0.139-1.627-0.194
				c-0.233-0.035-0.468-0.071-0.713-0.091c0.903,0.041,1.787,0.058,2.658,0.064c5.594,0.061,9.978-0.422,9.978-0.422
				c-3.529-0.016-7.06-0.313-10.224-0.721c-6.104-0.764-10.78-1.881-11.202-1.987c0.507,0.063,1.45,0.108,2.629,0.122
				c3.053,0.042,7.694-0.063,10.514-0.137c-5.31-0.168-15.535-1.596-15.535-1.596l2.341-1.305c-3.838-0.438-5.527,0.635-6.279,1.66
				c-0.58,0.807-0.594,1.57-0.594,1.57c-0.863,3.706-3.052,3.579-3.052,3.579l0.751-1.507c-4.358,2.961-3.72,11.922-3.72,11.922
				l-0.448-3.307c0.094,5.766-2.271,4.804-2.271,4.804c0.33-2.668,0.305-5.095,0.148-7.081c-0.232-3.161-0.796-5.19-0.796-5.19
				c-2.598-9.132,1.107-11.193,1.846-11.522c0.015-0.002,0.015-0.002,0.025-0.004c0.037-0.021,0.076-0.028,0.113-0.035
				c0.066,0,0.132-0.012,0.209-0.027c0.104-0.02,0.204-0.053,0.297-0.124c0.279-0.214,0.4-0.558,0.326-0.878l-0.003-0.012
				c-0.032-0.102-0.065-0.201-0.122-0.284c-0.014-0.011-0.018-0.023-0.018-0.023l-0.035-0.046l-0.021-0.037l-0.668-0.9
				c-0.04-0.072-0.081-0.145-0.121-0.217c-0.142-0.24-0.293-0.479-0.41-0.736c-0.27-0.643-0.393-1.287-0.294-1.88
				c0.079-0.43,0.292-0.845,0.608-1.213c0.108-0.128,0.221-0.242,0.358-0.35c0.457-0.408,1.061-0.751,1.631-0.968
				c0.052-0.022,0.109-0.061,0.158-0.084l0.566-0.188l0.04-0.621c0.014-0.203,0.03-0.394,0.06-0.586
				c0.01-0.162,0.051-0.304,0.087-0.457c0.043-0.195,0.085-0.391,0.171-0.568c0.084-0.189,0.197-0.371,0.324-0.543
				c0.085-0.109,0.174-0.207,0.275-0.307c0.106-0.127,0.217-0.255,0.368-0.365c0.015-0.002,0.023-0.018,0.037-0.02
				c0.435-0.311,0.937-0.555,1.479-0.712c0.518-0.153,1.126-0.257,1.644-0.276c0.027,0.008,0.052-0.01,0.079-0.002l2.196-0.047
				l-1.596-1.417l-0.05-0.044l-0.002-0.014c-0.836-0.667-1.42-1.689-1.633-2.798c-0.08-0.413-0.092-0.824-0.076-1.228
				c0.019-0.738,0.168-1.488,0.445-2.197c0.102-0.313,0.234-0.592,0.383-0.861c0.279-0.494,0.611-0.918,1.025-1.266
				c0.207-0.174,0.445-0.326,0.711-0.471c0.207-0.105,0.445-0.191,0.668-0.274c0.615-0.212,1.271-0.339,1.938-0.347
				c0.291-0.016,0.574-0.003,0.849,0.025l0.354,0.038l0.179,0.02l0.022-0.298l0.007-0.242c-0.003-0.014-0.003-0.014,0.01-0.016
				c0.008-0.455,0.041-0.902,0.104-1.342c0.008-0.028,0.018-0.057,0.012-0.082c0.075-0.441,0.18-0.876,0.313-1.289
				c0.014-0.003,0.011-0.016,0.021-0.031c0.065-0.213,0.16-0.418,0.254-0.623s0.201-0.413,0.313-0.595
				c0.233-0.379,0.501-0.725,0.817-1.025c1.127-1.084,2.666-1.635,4.257-1.9c0.248-0.034,0.505-0.084,0.755-0.104
				c0.195-0.024,0.396-0.022,0.606-0.036c0.736-0.062,1.492-0.086,2.161-0.015c0.827,0.134,1.585,0.456,2.218,0.976
				c0.017,0.011,0.045,0.019,0.063,0.042c0.108,0.085,0.17,0.194,0.27,0.296c0.496,0.492,0.921,1.104,1.226,1.781
				c0.344,0.815,0.557,1.71,0.639,2.562l0.047,0.445l0.041,0.5l0.841-0.148l0.877-0.168c0.065,0,0.131-0.012,0.196-0.012
				c0.187-0.009,0.382-0.033,0.55,0.002c0.498,0.024,0.922,0.211,1.271,0.504c0.178,0.152,0.33,0.324,0.463,0.525
				c0.147,0.225,0.277,0.468,0.367,0.73c0.188,0.498,0.301,1.078,0.321,1.608l0.111,2.663l0.273-0.867l0.51-1.66l-0.002-0.014
				c0.035-0.087,0.07-0.188,0.107-0.273c0.106-0.342,0.233-0.66,0.401-0.959c0.207-0.388,0.488-0.723,0.791-1.034
				c0.156-0.15,0.318-0.288,0.494-0.416c0.01-0.015,0.035-0.021,0.06-0.038c0.151-0.109,0.317-0.221,0.489-0.308
				c0.181-0.101,0.375-0.192,0.588-0.272c0.197-0.079,0.39-0.129,0.57-0.164l0.051-0.01c0.259-0.049,0.507-0.07,0.763-0.066
				c0.092-0.004,0.188,0.004,0.268,0.002c0.256,0.018,0.504,0.051,0.748,0.137c0.572,0.197,1.094,0.552,1.564,0.982
				c0.018,0.023,0.034,0.047,0.053,0.07c0.44,0.422,0.834,0.934,1.178,1.47c0.078,0.132,0.162,0.289,0.244,0.434
				c0.256,0.433,0.492,0.894,0.656,1.331l0.399,1.045l0.24,0.621l0.909-1.591l0.015-0.003c0.7-1.35,1.731-2.523,3.008-3.316
				c0.322-0.209,0.662-0.381,0.994-0.524c0.159-0.071,0.358-0.149,0.463-0.169l0.547-0.078c0.373-0.072,0.731-0.142,1.111-0.12
				l0.358-0.003l0.188,0.004c0.106-0.007,0.188,0.004,0.284,0.025c0.086,0.023,0.168,0.035,0.25,0.046
				c0.275,0.04,0.531,0.124,0.802,0.206c0.897,0.295,1.698,0.85,2.354,1.605c0.121,0.15,0.271,0.295,0.382,0.461
				c0.7,0.934,1.205,2.094,1.52,3.248c0.09,0.33,0.178,0.646,0.238,0.956l0.252,1.381l0.012-0.003l0.875-0.662l0.246-0.181
				l0.129-0.091l0.316-0.234l0.104-0.074l0.348-0.201c0.111-0.047,0.224-0.096,0.349-0.146c0.186-0.075,0.373-0.139,0.567-0.162
				c0.08-0.002,0.148-0.002,0.229-0.004c0.211-0.001,0.428,0.011,0.641,0.076c0.129,0.043,0.264,0.111,0.383,0.182
				c0.074,0.039,0.152,0.104,0.218,0.158c0.03,0.021,0.063,0.055,0.08,0.064l0.168,0.182l0.241,0.074
				c0.029,0.02,0.06,0.028,0.086,0.036c0.115,0.044,0.234,0.103,0.351,0.147c3.846,5.138-0.299,9.701-0.299,9.701
				C3529.26-1394.888,3525.864-1390.175,3525.864-1390.175z"/>
			<path fill="#0A0A0A" d="M3498.826-1414.622c0.014-0.004,0.025-0.005,0.039-0.008c0.004-0.002,0.008-0.003,0.012-0.004
				L3498.826-1414.622z"/>
			<path fill="#0A0A0A" d="M3473.129-1386.308c-0.207-0.09-0.42-0.176-0.646-0.234c-0.257-0.055-0.53-0.071-0.81-0.057
				c-0.209,0.012-0.42,0.035-0.629,0.107c-0.246,0.08-0.475,0.213-0.672,0.379c-0.193,0.162-0.356,0.354-0.477,0.564
				c-0.006,0.01-0.008,0.02-0.014,0.029c-0.125,0.242-0.201,0.501-0.228,0.764c0,0.005-0.002,0.01-0.002,0.016
				c-0.369,0.035-0.742,0.164-1.051,0.387c-0.3,0.201-0.509,0.48-0.677,0.777c-0.094,0.162-0.188,0.326-0.243,0.498
				c-0.14,0.488-0.179,0.996-0.013,1.479c0,0.002,0,0.003,0,0.005c0.207-0.348,0.388-0.67,0.568-0.971
				c0.195-0.321,0.398-0.605,0.623-0.844c0.08-0.088,0.159-0.179,0.25-0.252c0.086-0.063,0.187-0.112,0.281-0.167
				c0.188-0.106,0.395-0.188,0.625-0.234c0.049-0.01,0.087-0.032,0.137-0.038c0.076-0.021,0.156-0.026,0.236-0.032
				c0.133-0.009,0.268-0.014,0.408-0.035c0.111,0.001,0.232-0.003,0.35-0.003s0.229,0.006,0.355-0.003
				c-0.003-0.001-0.005-0.002-0.006-0.003c-0.193-0.138-0.402-0.267-0.625-0.37c-0.23-0.068-0.463-0.181-0.722-0.188
				c0.377-0.438,0.742-0.757,1.192-0.953c0,0,0.001,0,0.002-0.001c0.038-0.014,0.081-0.021,0.12-0.033
				c0.146-0.048,0.299-0.09,0.461-0.119c0.159-0.03,0.321-0.055,0.493-0.07l0.611-0.022c0.121,0.005,0.254-0.002,0.381-0.004
				c0.092-0.001,0.177,0.005,0.271-0.003c0.002,0,0.003,0,0.005,0c-0.156-0.123-0.326-0.227-0.501-0.327
				C3473.17-1386.278,3473.151-1386.295,3473.129-1386.308z"/>
			<path fill="#0A0A0A" d="M3500.709-1384.874c-0.08-0.104-0.17-0.199-0.273-0.285c-0.197-0.179-0.432-0.312-0.676-0.41
				c-0.019-0.007-0.037-0.006-0.055-0.012c-0.224-0.076-0.443-0.127-0.693-0.146c-0.014,0-0.023-0.007-0.037-0.008h-0.01h-0.009
				c-0.194,0.018-0.391,0.049-0.584,0.092c-0.086,0.02-0.172,0.035-0.256,0.063c-0.279,0.075-0.529,0.233-0.76,0.397
				c-0.064,0.048-0.119,0.106-0.177,0.16c-0.153,0.145-0.293,0.302-0.399,0.479c-0.002,0.001-0.002,0.001-0.002,0.001
				c-0.027-0.011-0.053-0.024-0.078-0.038c-0.037-0.02-0.075-0.041-0.114-0.057c-0.414-0.153-0.814-0.25-1.287-0.283l-0.017-0.002
				l-0.017,0.002c-0.467,0.033-0.932,0.113-1.381,0.262c-0.297,0.087-0.576,0.23-0.842,0.391c-0.139,0.084-0.279,0.165-0.41,0.258
				c-0.176,0.135-0.338,0.289-0.486,0.451c-0.481,0.527-0.813,1.178-0.909,1.854c0.002-0.002,0.004-0.004,0.006-0.008
				c0.055-0.119,0.125-0.229,0.19-0.34c0.259-0.446,0.586-0.836,0.972-1.146c0.168-0.137,0.346-0.26,0.528-0.365
				c0.082-0.046,0.17-0.08,0.257-0.121c0.207-0.101,0.42-0.184,0.641-0.25c0.082-0.024,0.16-0.057,0.244-0.076
				c0.389-0.107,0.797-0.129,1.203-0.159c0.2,0.02,0.424,0.069,0.643,0.132c0.132,0.037,0.265,0.075,0.388,0.123
				c0.053,0.019,0.102,0.044,0.151,0.068c0.019,0.008,0.035,0.016,0.054,0.023c-0.002,0.012-0.009,0.025-0.011,0.037v0.001
				c0.002-0.005,0.007-0.011,0.009-0.016c0.004-0.005,0.006-0.009,0.01-0.015c0-0.002,0-0.002,0.002-0.004
				c0.182,0.078,0.352,0.182,0.521,0.281c0.076,0.043,0.156,0.075,0.229,0.123c0.291,0.201,0.565,0.432,0.811,0.707
				c0.008,0.008,0.019,0.012,0.025,0.021c0.131,0.14,0.25,0.289,0.363,0.448c0.014,0.017,0.024,0.035,0.037,0.051
				c0.102,0.143,0.202,0.291,0.309,0.443c0.002,0.001,0.002,0.002,0.004,0.003c-0.014-0.233-0.064-0.465-0.135-0.693
				c-0.174-0.575-0.51-1.12-0.988-1.527c-0.221-0.2-0.477-0.356-0.744-0.493h0.002c0.172-0.184,0.367-0.34,0.576-0.465
				c0.154-0.082,0.322-0.135,0.486-0.189c0.305-0.102,0.619-0.172,0.945-0.182c0.196,0.021,0.426,0.082,0.625,0.162
				c0.211,0.074,0.401,0.184,0.588,0.305l0,0c0.182,0.125,0.354,0.268,0.508,0.442c0.014,0.015,0.022,0.034,0.037,0.05
				c0.143,0.155,0.264,0.33,0.393,0.52c0,0.002,0.004,0.004,0.004,0.006c-0.024-0.372-0.168-0.754-0.408-1.066L3500.709-1384.874
				L3500.709-1384.874z"/>
			<path fill="#0A0A0A" d="M3482.66-1407.458c0.141,0.039,0.281,0.08,0.414,0.131c0.047,0.018,0.092,0.041,0.139,0.063
				c0.021,0.01,0.041,0.019,0.063,0.028c0.001,0.001,0.001,0.001,0.002,0.001c-0.001,0.012-0.007,0.022-0.009,0.034
				c0,0.001-0.001,0.003,0,0.005v-0.001c0-0.003,0.003-0.007,0.004-0.01c0.006-0.007,0.01-0.015,0.014-0.022
				c0,0,0-0.001,0.001-0.002c0.262,0.113,0.513,0.248,0.751,0.404c0.268,0.187,0.516,0.404,0.746,0.65
				c0.027,0.029,0.061,0.047,0.088,0.076c0,0.001,0,0.002,0,0.002c0.195,0.207,0.365,0.445,0.537,0.693
				c0.059,0.084,0.116,0.165,0.177,0.252c-0.007-0.105-0.036-0.211-0.054-0.315c-0.081-0.479-0.271-0.947-0.57-1.354
				c-0.145-0.2-0.308-0.389-0.498-0.551c-0.221-0.201-0.479-0.355-0.742-0.492c-0.002,0-0.002-0.001-0.002-0.001
				c0.174-0.185,0.368-0.341,0.577-0.466c0.22-0.117,0.452-0.207,0.692-0.268c0.021-0.006,0.047-0.006,0.07-0.011
				c0.218-0.051,0.44-0.086,0.67-0.093c0.004,0.001,0.01,0.004,0.016,0.004c0.193,0.023,0.414,0.08,0.609,0.158
				c0.209,0.074,0.4,0.184,0.586,0.305c0.184,0.126,0.356,0.27,0.509,0.443c0.083,0.086,0.15,0.196,0.224,0.296
				c0.068,0.093,0.139,0.175,0.207,0.274c0.002,0.002,0.002,0.003,0.003,0.005c-0.028-0.403-0.196-0.811-0.476-1.136
				c-0.065-0.076-0.13-0.151-0.207-0.217c-0.085-0.076-0.195-0.116-0.293-0.178c-0.129-0.079-0.245-0.176-0.385-0.232
				c-0.007-0.002-0.015-0.002-0.021-0.004c-0.244-0.088-0.48-0.143-0.759-0.16c0,0-0.003-0.002-0.005-0.001l-0.012-0.001h-0.008
				c0,0,0,0-0.002,0.001c-0.001,0.001-0.004,0.001-0.007,0.001c-0.28,0.025-0.56,0.063-0.831,0.153
				c-0.277,0.075-0.529,0.233-0.76,0.397c-0.117,0.088-0.225,0.187-0.319,0.294c-0.098,0.107-0.183,0.224-0.255,0.343
				c0,0.002-0.002,0.003-0.003,0.004c-0.063-0.03-0.126-0.068-0.192-0.096c-0.414-0.152-0.814-0.25-1.289-0.283h-0.014h-0.017
				c-0.198,0.015-0.395,0.041-0.591,0.074c-0.07,0.013-0.142,0.025-0.213,0.041c-0.193,0.039-0.388,0.084-0.576,0.146
				c-0.455,0.132-0.871,0.379-1.254,0.648c-0.471,0.365-0.84,0.842-1.088,1.364c-0.146,0.303-0.26,0.616-0.307,0.941
				c0.002-0.003,0.004-0.006,0.004-0.009c0.133-0.284,0.301-0.539,0.485-0.779c0.318-0.412,0.7-0.756,1.126-1.015
				c0.026-0.017,0.053-0.038,0.079-0.054c0,0,0.001,0,0.002-0.001c0.322-0.181,0.666-0.317,1.023-0.411
				c0.04-0.011,0.075-0.027,0.116-0.037c0.39-0.107,0.798-0.129,1.203-0.158C3482.239-1407.563,3482.449-1407.517,3482.66-1407.458z
				"/>
			<path fill="#0A0A0A" d="M3520.844-1398.485c-0.109-0.217-0.26-0.416-0.447-0.581c-0.012-0.011-0.02-0.022-0.031-0.033
				c-0.19-0.173-0.42-0.299-0.656-0.397c-0.008-0.003-0.014-0.01-0.021-0.014c-0.146-0.052-0.301-0.066-0.449-0.094
				c-0.11-0.021-0.213-0.064-0.336-0.071l-0.01-0.001l-0.008,0.001c-0.193,0.019-0.384,0.048-0.572,0.089
				c-0.09,0.021-0.18,0.037-0.269,0.064c-0.278,0.076-0.528,0.234-0.76,0.398c-0.156,0.117-0.287,0.26-0.406,0.41
				c-0.061,0.076-0.123,0.149-0.172,0.229c-0.063-0.029-0.127-0.068-0.193-0.095c-0.412-0.153-0.813-0.251-1.287-0.284l-0.016-0.001
				l-0.016,0.001c-0.468,0.033-0.931,0.113-1.382,0.263c-0.452,0.132-0.871,0.378-1.252,0.647c-0.743,0.575-1.266,1.414-1.393,2.298
				c-0.002,0.003-0.002,0.005-0.002,0.008c0.121-0.271,0.287-0.507,0.459-0.736c0.034-0.044,0.057-0.101,0.092-0.144
				c0.217-0.263,0.463-0.495,0.728-0.693c0.135-0.102,0.272-0.201,0.418-0.283c0.241-0.137,0.498-0.241,0.76-0.33
				c0.125-0.042,0.25-0.088,0.381-0.118c0.121-0.033,0.244-0.048,0.367-0.067c0.147-0.023,0.295-0.047,0.445-0.06
				c0.131-0.011,0.26-0.022,0.391-0.032c0.225,0.021,0.471,0.082,0.713,0.154c0.107,0.033,0.215,0.062,0.316,0.101
				c0.014,0.005,0.026,0.013,0.041,0.02c0.055,0.022,0.108,0.049,0.164,0.072c0,0.006-0.002,0.01-0.004,0.014
				c-0.002,0.007-0.002,0.013-0.004,0.019c-0.002,0.003-0.002,0.005-0.002,0.007c0.002-0.006,0.006-0.012,0.01-0.018
				s0.006-0.012,0.01-0.018c0,0,0.002,0.001,0.002,0.002c0.041,0.018,0.078,0.045,0.119,0.063c0.217,0.101,0.43,0.209,0.629,0.34
				c0.016,0.011,0.029,0.026,0.043,0.037c0.283,0.199,0.557,0.419,0.793,0.69c0.027,0.029,0.049,0.063,0.076,0.094
				c0.194,0.227,0.373,0.475,0.557,0.736c0.024,0.039,0.053,0.076,0.08,0.115c0-0.004-0.002-0.008-0.004-0.012
				c-0.037-0.611-0.275-1.23-0.672-1.74c-0.004-0.005-0.011-0.01-0.017-0.016c-0.129-0.164-0.271-0.316-0.432-0.453
				c-0.154-0.141-0.341-0.24-0.521-0.345c-0.076-0.044-0.141-0.105-0.221-0.146c-0.002-0.001-0.002-0.001-0.004-0.001
				c0.174-0.185,0.369-0.342,0.578-0.466c0.16-0.086,0.334-0.141,0.506-0.196c0.299-0.098,0.604-0.165,0.922-0.175
				c0.002,0.001,0.002-0.001,0.004,0c0.08,0.009,0.168,0.046,0.254,0.065c0.127,0.03,0.254,0.049,0.371,0.096
				c0.209,0.074,0.402,0.184,0.588,0.305c0.182,0.127,0.355,0.27,0.508,0.443c0.162,0.168,0.293,0.366,0.435,0.576
				c0-0.002,0-0.004,0-0.005c0-0.007-0.004-0.014-0.004-0.021c-0.021-0.237-0.086-0.478-0.195-0.701
				C3520.846-1398.477,3520.844-1398.481,3520.844-1398.485z"/>
			<path fill="#0A0A0A" d="M3499.778-1403.133c0.092-0.081,0.18-0.167,0.283-0.229c0.264-0.142,0.551-0.213,0.848-0.249
				c0.08-0.01,0.156-0.03,0.238-0.033c0.314,0.041,0.646,0.171,0.92,0.354c0.143,0.092,0.27,0.205,0.387,0.334
				c0.008,0.009,0.012,0.02,0.021,0.027c0.106,0.123,0.209,0.258,0.303,0.405c0.002,0.003,0.004,0.005,0.004,0.007
				c-0.012-0.189-0.063-0.379-0.154-0.555c-0.086-0.173-0.207-0.33-0.354-0.461c-0.004-0.003-0.007-0.007-0.009-0.01
				c-0.065-0.058-0.146-0.086-0.219-0.131c-0.266-0.172-0.563-0.285-0.891-0.307h-0.002h-0.006h-0.007
				c-0.176,0.017-0.348,0.051-0.518,0.096c-0.039,0.01-0.08,0.009-0.121,0.021c-0.009,0.002-0.017,0.008-0.025,0.012
				c-0.141,0.041-0.268,0.11-0.393,0.189c-0.054,0.033-0.107,0.063-0.158,0.102c-0.346,0.26-0.588,0.65-0.646,1.061
				c0.004-0.007,0.01-0.012,0.014-0.02C3499.408-1402.765,3499.584-1402.963,3499.778-1403.133z"/>
			<path fill="#0A0A0A" d="M3479.041-1399.224c-0.399-0.35-0.936-0.568-1.502-0.592c-0.08,0.002-0.162-0.01-0.241-0.008
				c-0.646,0.044-1.273,0.393-1.685,0.898c-0.162,0.205-0.275,0.44-0.363,0.684c-0.082,0.27-0.135,0.547-0.133,0.84
				c0.008,0.105,0.002,0.215,0.023,0.33c0.016,0.077,0.043,0.152,0.07,0.227c0.084,0.305,0.22,0.586,0.41,0.816
				c0.146,0.199,0.323,0.365,0.512,0.503c0.323,0.231,0.694,0.348,1.063,0.384c0.518,0.048,1.044-0.054,1.477-0.311
				c0.252-0.143,0.468-0.344,0.64-0.563C3480.035-1396.903,3479.99-1398.39,3479.041-1399.224z M3479.138-1396.155
				c-0.322,0.408-0.806,0.675-1.321,0.707c-0.504,0.017-0.994-0.17-1.35-0.488c-0.716-0.664-0.729-1.783-0.18-2.464
				c0.51-0.686,1.607-0.95,2.421-0.398c0.396,0.258,0.708,0.692,0.791,1.197C3479.597-1397.1,3479.459-1396.565,3479.138-1396.155z"
				/>
			<path fill="#0A0A0A" d="M3479.381-1394.747c-0.221,0.029-0.445,0.113-0.65,0.232c-0.178,0.113-0.352,0.254-0.479,0.426
				c-0.127,0.171-0.223,0.377-0.287,0.59c0.002,0.012,0.002,0.012,0.004,0.025c-0.036,0.154-0.046,0.316-0.043,0.463
				c0.001,0.08,0.004,0.159,0.016,0.224c0.09,0.464,0.369,0.878,0.76,1.109c0.185,0.112,0.367,0.17,0.563,0.213
				c0.192,0.03,0.392,0.019,0.574-0.004c0.051-0.01,0.106,0.007,0.159-0.003c0.062-0.025,0.097-0.061,0.156-0.084
				c0.762-0.28,1.219-1.104,1.064-1.834C3481.078-1394.19,3480.268-1394.864,3479.381-1394.747z M3480.819-1392.339
				c-0.225,0.285-0.554,0.454-0.893,0.493c-0.693,0.079-1.289-0.447-1.389-1.042c-0.117-0.605,0.242-1.303,0.916-1.486
				c0.33-0.09,0.696-0.053,1.016,0.14c0.301,0.183,0.525,0.514,0.594,0.874C3481.133-1392.999,3481.032-1392.62,3480.819-1392.339z"
				/>
			<path fill="#0A0A0A" d="M3462.69-1385.261c-0.43,0.055-0.854,0.284-1.129,0.657c-0.266,0.358-0.387,0.836-0.301,1.286
				l0.002,0.014c0.045,0.232,0.129,0.456,0.259,0.645c0.124,0.164,0.274,0.321,0.444,0.437l0.046,0.031
				c0.153,0.104,0.323,0.152,0.491,0.188c0.166,0.034,0.327,0.043,0.496,0.023c0.106-0.007,0.205,0.015,0.307-0.005
				c0.141-0.04,0.259-0.116,0.391-0.195c0.063-0.025,0.141-0.04,0.185-0.089c0.305-0.219,0.506-0.564,0.6-0.917
				c0.062-0.238,0.093-0.485,0.05-0.717C3464.4-1384.708,3463.576-1385.378,3462.69-1385.261z M3464.127-1382.853
				c-0.226,0.284-0.554,0.453-0.895,0.492c-0.682,0.064-1.287-0.447-1.378-1.057c-0.127-0.591,0.246-1.291,0.906-1.471
				c0.33-0.09,0.696-0.055,1.016,0.139c0.302,0.183,0.525,0.514,0.597,0.875C3464.44-1383.526,3464.354-1383.137,3464.127-1382.853z
				"/>
			<path fill="#0A0A0A" d="M3463.852-1380.743c-0.311,0.047-0.613,0.212-0.807,0.463c-0.062,0.092-0.096,0.191-0.13,0.293
				c-0.034,0.1-0.059,0.184-0.077,0.295c-0.006,0.107-0.021,0.23-0.002,0.334s0.063,0.188,0.105,0.273
				c0.106,0.207,0.235,0.396,0.42,0.521c0.183,0.112,0.389,0.14,0.592,0.153c0.106,0.006,0.216,0.012,0.329-0.023
				c0.116-0.021,0.212-0.08,0.308-0.139c0.178-0.114,0.323-0.263,0.422-0.441c0.129-0.238,0.183-0.517,0.134-0.773
				C3465.061-1380.36,3464.465-1380.82,3463.852-1380.743z M3464.861-1379.04c-0.161,0.205-0.39,0.33-0.628,0.349
				c-0.482,0.053-0.926-0.304-0.981-0.733c-0.097-0.437,0.185-0.917,0.653-1.047c0.228-0.07,0.486-0.04,0.698,0.092
				c0.214,0.133,0.376,0.355,0.425,0.613C3465.077-1379.509,3465.01-1379.241,3464.861-1379.04z"/>
			<path fill="#0A0A0A" d="M3493.115-1380.886c0,0-0.947,0.029-2.383,0.07C3491.742-1380.794,3492.571-1380.807,3493.115-1380.886z"
				/>
			<path fill="#0A0A0A" d="M3490.176-1391.308c-0.008,0.019-0.019,0.043-0.031,0.059c0.307-0.316,0.551-0.693,0.723-1.12
				c0.75-1.854-0.145-3.962-2-4.712c-1.854-0.75-3.963,0.145-4.712,2c-0.173,0.428-0.259,0.867-0.259,1.308
				c0.001-0.021,0.012-0.045,0.018-0.063c0.698-1.727,2.67-2.563,4.396-1.865
				C3490.037-1395.005,3490.873-1393.034,3490.176-1391.308z"/>
			<path fill="#0A0A0A" d="M3506.711-1394.574c-2.229-0.454-4.402,0.983-4.855,3.212c-0.105,0.514-0.109,1.024-0.02,1.517
				c-0.002-0.023,0.004-0.053,0.008-0.075c0.424-2.076,2.455-3.418,4.529-2.996c2.075,0.424,3.42,2.453,2.996,4.529
				c-0.004,0.021-0.011,0.051-0.021,0.072c0.275-0.418,0.471-0.89,0.576-1.403
				C3510.377-1391.948,3508.942-1394.12,3506.711-1394.574z"/>
			<path fill="#0A0A0A" d="M3487.311-1404.63c-1.367,0.48-2.084,1.978-1.604,3.346c0.11,0.316,0.274,0.596,0.485,0.836
				c-0.009-0.012-0.016-0.029-0.02-0.043c-0.449-1.274,0.223-2.674,1.496-3.122c1.272-0.448,2.674,0.223,3.121,1.497
				c0.006,0.013,0.012,0.031,0.012,0.046c0.014-0.319-0.033-0.641-0.146-0.956C3490.176-1404.395,3488.68-1405.112,3487.311-1404.63
				z"/>
			<path fill="#0A0A0A" d="M3510.602-1408.101c1.275-0.449,2.674,0.223,3.123,1.496c0.004,0.014,0.01,0.031,0.012,0.047
				c0.014-0.318-0.035-0.641-0.145-0.956c-0.482-1.368-1.979-2.086-3.348-1.604c-1.367,0.482-2.086,1.979-1.604,3.348
				c0.108,0.314,0.274,0.596,0.486,0.835c-0.011-0.013-0.017-0.03-0.021-0.044
				C3508.658-1406.253,3509.328-1407.653,3510.602-1408.101z"/>
			<path fill="#0A0A0A" d="M3476.196-1408.587c0.006,0.014,0.012,0.032,0.012,0.047c0.015-0.318-0.032-0.641-0.145-0.955
				c-0.48-1.369-1.979-2.086-3.347-1.605c-1.368,0.482-2.086,1.979-1.604,3.348c0.111,0.314,0.275,0.596,0.486,0.835
				c-0.009-0.012-0.016-0.03-0.02-0.043c-0.449-1.274,0.223-2.674,1.496-3.122S3475.748-1409.86,3476.196-1408.587z"/>
			<path fill="#0A0A0A" d="M3484.131-1417.055c1.127,0.297,1.799,1.454,1.502,2.579c-0.004,0.012-0.008,0.028-0.014,0.039
				c0.164-0.221,0.284-0.473,0.358-0.752c0.319-1.21-0.399-2.446-1.61-2.767c-1.209-0.319-2.447,0.4-2.766,1.61
				c-0.073,0.278-0.094,0.559-0.061,0.832c0-0.014,0.004-0.029,0.008-0.041C3481.848-1416.68,3483.004-1417.354,3484.131-1417.055z"
				/>
		</g>
	</g>
</g>
<g>
	<path fill="#FFC107" d="M19.648,25.663c0,0,0,0.001,0,0.002c0.277-0.349,0.557-0.673,0.84-0.969
		c0.643-0.669,1.317-1.181,2.094-1.39c0.437-0.12,0.909-0.17,1.404-0.157c0.128,0.003,0.257,0.009,0.389,0.022
		c0.158,0.011,0.318,0.035,0.481,0.061c0.002,0,0.004,0,0.006,0c0.164,0.025,0.33,0.052,0.5,0.069
		c0.07,0.016,0.144,0.03,0.214,0.046c0.267,0.061,0.538,0.118,0.834,0.149c-0.001-0.001-0.004-0.002-0.005-0.003
		c0.003,0,0.005,0,0.007,0c-0.196-0.208-0.416-0.391-0.643-0.572c-0.063-0.05-0.123-0.102-0.186-0.151
		c-0.023-0.012-0.046-0.025-0.069-0.038c-0.3-0.163-0.599-0.352-0.936-0.462c-0.009-0.003-0.019-0.005-0.027-0.008
		c-0.163-0.058-0.331-0.106-0.504-0.142c-0.008-0.002-0.017-0.003-0.023-0.005c-0.182-0.036-0.365-0.06-0.555-0.073
		c0.156-0.182,0.313-0.345,0.473-0.494c0.049-0.044,0.097-0.094,0.146-0.134c0.271-0.225,0.545-0.378,0.834-0.479
		c0.012-0.004,0.022-0.006,0.035-0.01c0.085-0.028,0.172-0.054,0.261-0.074c0.029-0.007,0.06-0.008,0.089-0.014
		c0.202-0.036,0.417-0.046,0.645-0.042c0.203,0.005,0.415,0.019,0.634,0.031c0.115,0.023,0.234,0.039,0.356,0.054
		c0.021,0.002,0.042,0.006,0.063,0.009c0.118,0.014,0.237,0.028,0.357,0.047c0.2,0.035,0.408,0.067,0.626,0.088
		c0.073,0.008,0.144,0.019,0.221,0.022l-0.001-0.001c0.001,0,0.002,0,0.003,0c-0.171-0.227-0.375-0.416-0.584-0.608
		c-0.009-0.008-0.019-0.017-0.026-0.025h-0.001l0,0c-0.011-0.007-0.021-0.014-0.032-0.021c-0.176-0.129-0.361-0.244-0.554-0.353
		c-0.056-0.032-0.109-0.065-0.166-0.096l0,0h-0.001c-0.191-0.077-0.394-0.146-0.604-0.199c-0.019-0.004-0.036-0.01-0.056-0.015
		c-0.006-0.001-0.012-0.002-0.018-0.004c-0.249-0.057-0.508-0.087-0.774-0.076c-0.139,0.005-0.279,0.02-0.422,0.051
		c-0.095,0.019-0.188,0.046-0.28,0.077c-0.376,0.126-0.718,0.348-0.986,0.624c-0.119,0.121-0.224,0.251-0.311,0.389
		c-0.008,0.013-0.018,0.024-0.024,0.037l0,0l0,0c-0.229,0.386-0.356,0.807-0.374,1.228c-0.09,0.006-0.181,0.017-0.271,0.028
		c-0.075,0.009-0.148,0.022-0.225,0.036c-0.086,0.016-0.173,0.03-0.258,0.054c-0.551,0.153-1.043,0.458-1.44,0.84
		c-0.176,0.168-0.335,0.351-0.47,0.543C19.903,24.197,19.642,24.923,19.648,25.663L19.648,25.663z"/>
	<circle fill="#FFC107" cx="37.268" cy="45.553" r="0.363"/>
	<circle fill="#FFC107" cx="37.872" cy="55.901" r="0.157"/>
	<path fill="#FFC107" d="M37.395,15.742c0.144,0.007,0.287,0.021,0.433,0.042c0.435,0.065,0.873,0.191,1.313,0.388
		c0.294,0.115,0.577,0.279,0.882,0.415c0.007,0.003,0.015,0.007,0.021,0.01c0.295,0.173,0.593,0.353,0.938,0.506
		c-0.042-0.09-0.095-0.175-0.144-0.262c-0.108-0.195-0.227-0.387-0.353-0.577c-0.022-0.036-0.045-0.071-0.068-0.107
		c-0.058-0.059-0.113-0.119-0.17-0.18c-0.194-0.212-0.391-0.432-0.629-0.604c-0.294-0.229-0.629-0.419-0.988-0.557
		c0.146-0.09,0.291-0.171,0.434-0.245c0.117-0.061,0.233-0.117,0.353-0.161c0.096-0.039,0.189-0.07,0.284-0.098
		c0.328-0.094,0.643-0.121,0.961-0.091c0.267,0.022,0.541,0.109,0.824,0.214c0.127,0.047,0.259,0.096,0.392,0.148
		c0.031,0.012,0.061,0.024,0.092,0.036c0.055,0.031,0.115,0.058,0.173,0.086c0.173,0.086,0.353,0.167,0.534,0.26
		c0.069,0.035,0.139,0.071,0.208,0.106c0.176,0.091,0.358,0.182,0.565,0.257c-0.089-0.255-0.217-0.487-0.349-0.722
		c-0.014-0.024-0.025-0.049-0.04-0.074c-0.034-0.047-0.073-0.092-0.108-0.138c-0.083-0.106-0.168-0.211-0.259-0.313
		c-0.065-0.077-0.133-0.153-0.201-0.229c-0.466-0.38-1.021-0.74-1.708-0.805c-0.232-0.027-0.467-0.014-0.694,0.028
		c-0.442,0.08-0.86,0.275-1.177,0.552c-0.292,0.257-0.515,0.564-0.665,0.898c-0.023,0.051-0.049,0.101-0.069,0.152
		c-0.242-0.059-0.497-0.104-0.752-0.118c-0.416-0.017-0.827,0.051-1.21,0.182c-0.377,0.128-0.729,0.317-1.031,0.549
		c-0.314,0.247-0.593,0.529-0.82,0.843c-0.104,0.142-0.195,0.291-0.275,0.446c-0.002,0.004-0.005,0.008-0.007,0.013
		c-0.08,0.155-0.147,0.317-0.2,0.485c0,0.002-0.002,0.004-0.002,0.006c0,0.001-0.001,0.002-0.001,0.003
		c0.947-0.63,1.854-1.127,2.76-1.29C36.89,15.753,37.142,15.729,37.395,15.742z"/>
	<path fill="#FFC107" d="M44.466,25.852c0.456-0.28,0.902-0.525,1.349-0.734c0.116-0.054,0.233-0.112,0.351-0.161
		c0.623-0.263,1.246-0.42,1.865-0.464c0.169-0.012,0.337-0.019,0.505-0.012c0.782,0.04,1.577,0.229,2.384,0.583
		c0.168,0.068,0.333,0.147,0.5,0.23c0.235,0.119,0.476,0.245,0.729,0.357c0.399,0.235,0.806,0.477,1.276,0.687
		c0,0-0.001-0.001-0.001-0.002c0.001,0,0.002,0.001,0.003,0.002c-0.082-0.174-0.175-0.341-0.272-0.506
		c-0.154-0.264-0.322-0.521-0.495-0.783c-0.175-0.177-0.344-0.367-0.521-0.551s-0.363-0.363-0.573-0.516
		c-0.016-0.013-0.032-0.023-0.049-0.036c-0.388-0.297-0.828-0.542-1.299-0.724c0.366-0.225,0.72-0.417,1.069-0.557
		c0.068-0.027,0.136-0.045,0.205-0.068c0.516-0.174,1.004-0.232,1.494-0.186c0.05,0.004,0.101,0.017,0.15,0.024
		c0.52,0.074,1.055,0.294,1.635,0.519c0.229,0.125,0.474,0.239,0.723,0.356c0.081,0.038,0.159,0.075,0.241,0.115
		c0.327,0.17,0.661,0.354,1.055,0.498c0-0.001,0-0.001-0.001-0.002c0.001,0,0.001,0,0.001,0c-0.02-0.052-0.04-0.103-0.062-0.153
		c-0.054-0.136-0.112-0.269-0.178-0.398c-0.09-0.178-0.189-0.353-0.289-0.529c-0.223-0.331-0.5-0.628-0.779-0.928
		c-0.628-0.523-1.388-1.008-2.326-1.101c-0.546-0.063-1.105,0.027-1.608,0.227c-0.352,0.138-0.675,0.327-0.944,0.56
		c-0.229,0.203-0.429,0.428-0.597,0.669c-0.005,0.006-0.008,0.013-0.012,0.02c-0.161,0.235-0.293,0.486-0.393,0.749
		c-0.333-0.084-0.674-0.147-1.024-0.162c-1.12-0.047-2.226,0.356-3.056,0.994c-0.304,0.238-0.584,0.501-0.832,0.787
		c-0.373,0.427-0.668,0.906-0.864,1.429c-0.029,0.076-0.06,0.15-0.083,0.228c0.196-0.13,0.39-0.255,0.583-0.375
		C44.372,25.907,44.419,25.88,44.466,25.852z"/>
	<path fill="#FFC107" d="M21.121,41.417c2.399,0.246,5.206,0.281,7.935,0.213c2.083-0.052,4.12-0.164,5.896-0.289
		c3.375-0.236,5.804-0.519,5.804-0.519c-1.662-0.148-3.593-0.386-5.575-0.662c-2.769-0.386-5.637-0.847-8.021-1.25
		c-1.74-0.295-3.217-0.558-4.208-0.737c-0.001,0-0.002,0-0.003,0c-0.841-0.153-1.337-0.246-1.337-0.246
		c0.724,0.022,1.455,0.029,2.194,0.024c0.002,0,0.004,0,0.005,0c0.872-0.006,1.752-0.031,2.633-0.068
		c1.952-0.083,3.908-0.237,5.798-0.434c4.941-0.514,9.408-1.307,12.083-1.834c1.625-0.321,2.592-0.543,2.592-0.543
		c-0.791-0.002-1.617-0.011-2.468-0.026c-9.781-0.167-22.838-1.096-22.838-1.096c6.547-1.8,26.022-2.648,26.022-2.648
		c-17.688-1.825-29.95,0.691-29.95,0.691v8.83C18.663,41.092,19.833,41.285,21.121,41.417L21.121,41.417z"/>
	<circle fill="#FFC107" cx="40.248" cy="60.09" r="0.38"/>
	<circle fill="#FFC107" cx="42.428" cy="52.604" r="0.304"/>
	<circle fill="#FFC107" cx="40.51" cy="50.106" r="0.156"/>
	<path fill="#FFC107" d="M63.714,42.132c-2.42,0.484-5.017,0.829-7.692,1.066c1.316,22.557-6.65,53.502-6.656,53.524l0,0l0,0
		c2.65-20.756,1.598-43.085,0.884-53.174c-0.746,0.026-1.492,0.046-2.238,0.06C48.657,58.832,43.45,79.05,43.45,79.05
		c1.742-13.646,1.125-28.297,0.645-35.42c-3.315-0.022-6.541-0.146-9.506-0.315c-1.838-0.105-3.574-0.229-5.168-0.357
		c-3.707-0.299-6.647-0.628-8.299-0.828l0,0c-0.949-0.115-1.474-0.187-1.474-0.187h-1.942c0.136,7.517,0.808,50.846-1.605,58.885
		c-0.307,1.034,0.072,1.938,0.995,2.711h0.001c-0.002,0.006-0.005,0.014-0.007,0.02c-0.129,0.316-0.215,0.634-0.276,0.949
		c-0.004,0.019-0.008,0.037-0.011,0.056c-0.028,0.155-0.052,0.312-0.07,0.466c-0.001,0.006-0.001,0.01-0.002,0.016
		c-0.019,0.16-0.034,0.322-0.047,0.481c-0.048,0.748-0.083,1.49-0.091,2.243c0,0.376,0.007,0.753,0.03,1.137
		c0.006,0.114,0.02,0.232,0.03,0.35c0.008,0.078,0.012,0.154,0.021,0.234c0.008,0.064,0.02,0.131,0.031,0.197
		c0.006,0.037,0.009,0.072,0.018,0.109l0.038,0.168c0.006,0.016,0.01,0.027,0.013,0.041c0.008,0.023,0.015,0.045,0.025,0.076
		c0,0.107,0.014,0.188,0.032,0.283c0.021,0.135,0.064,0.25,0.111,0.364c0.022,0.067,0.052,0.13,0.082,0.19
		c0.079,0.152,0.178,0.289,0.268,0.429c0.278,0.364,0.605,0.653,0.942,0.922c0.353,0.237,0.698,0.487,1.073,0.663l0.554,0.287
		l0.57,0.234c1.523,0.613,3.097,1.029,4.685,1.328l0.258,0.049l0.933,0.181l0.449,0.065l0.745,0.109l1.194,0.175l1.201,0.126
		c0.248,0.03,0.496,0.053,0.744,0.079c0.358,0.036,0.716,0.069,1.074,0.099c0.021,0.002,0.044,0.004,0.066,0.004
		c0.544,0.029,1.08,0.047,1.606,0.058c-1.158-0.134-2.313-0.267-3.462-0.46l-1.191-0.184l-0.486-0.094l-0.69-0.135l-1.179-0.23
		l-0.38-0.09l-0.789-0.189c-1.552-0.367-3.083-0.852-4.51-1.506l-0.159-0.075l0.159,0.075c1.428,0.654,2.956,1.138,4.51,1.504
		L26,114.535l0.376,0.09l1.178,0.229l0.691,0.136l0.489,0.094l1.189,0.183c1.151,0.194,2.311,0.329,3.472,0.462
		c4.941,0.098,8.943-0.502,8.943-0.502c-10.545-0.211-20.401-4.174-20.401-4.174c4.479,1.345,9.424,1.771,13.646,1.814
		c0.016,0.002,0.031,0.002,0.047,0.002c3.219,0.032,6.013-0.156,7.845-0.328c0.646,0.106,1.598,0.227,2.896,0.297
		c0.003,0,0.007,0,0.01,0c2.458,0.133,6.161,0.093,11.395-0.528c0,0-5.723,2.196-11.291,2.644c0,0,7.531,0.799,12.693-0.832
		c0.083-0.031,0.164-0.063,0.246-0.093c0.27-0.118,0.536-0.249,0.794-0.39c-0.258,0.142-0.524,0.271-0.792,0.392
		c-0.077,0.027-0.152,0.056-0.228,0.083c-0.058,0.021-0.113,0.042-0.171,0.063c-0.431,0.164-0.861,0.332-1.318,0.428
		c-0.239,0.063-0.479,0.125-0.718,0.186c-0.313,0.078-0.63,0.146-0.949,0.192c-0.04,0.006-0.079,0.015-0.117,0.019
		c-0.161,0.033-0.323,0.057-0.484,0.082c-0.482,0.082-0.968,0.146-1.455,0.197c-0.57,0.061-1.145,0.109-1.719,0.167
		c0.289-0.005,0.577-0.007,0.866-0.011c0.722-0.01,1.447-0.02,2.172-0.072c0.221-0.015,0.441-0.029,0.662-0.056
		c0.135-0.007,0.269-0.019,0.403-0.032c0.17-0.018,0.34-0.038,0.51-0.063c0.312-0.045,0.622-0.103,0.933-0.156
		c0.391-0.049,0.771-0.148,1.15-0.256c0.225-0.065,0.45-0.131,0.678-0.192c0.213-0.073,0.427-0.157,0.641-0.243
		c0.822-0.337,1.629-0.779,2.279-1.461c0.118-0.123,0.23-0.254,0.336-0.393c0.437-0.534,0.699-1.229,0.784-1.928
		c0.046-0.414,0.031-0.813-0.038-1.217c-0.041-0.238-0.095-0.477-0.18-0.721c-0.033-0.676-0.113-1.361-0.31-2.046
		c-0.096-0.353-0.229-0.704-0.41-1.05c-0.091-0.172-0.197-0.342-0.322-0.508c-0.031-0.041-0.069-0.082-0.104-0.121
		c-0.034-0.043-0.066-0.086-0.106-0.127c-0.044-0.041-0.077-0.076-0.118-0.113c-0.03-0.028-0.068-0.059-0.116-0.094
		c-0.024-0.019-0.05-0.037-0.083-0.061l-0.004-0.002l0,0l-0.19-0.119l-0.245,0.027l-1.529,0.169c0.002,0,0.003-0.001,0.005-0.001
		c1.191-0.551,1.924-1.172,2.049-1.866l1.729-58.342l1.483-4.153L63.714,42.132z M31.105,84.768c1.423,0,2.576,1.157,2.576,2.58
		c0,0.872-0.433,1.646-1.096,2.106c0.249-0.299,0.393-0.684,0.393-1.101c0-0.958-0.776-1.737-1.737-1.737
		c-0.962,0-1.738,0.78-1.738,1.737c0,0.588,0.294,1.108,0.741,1.423c-1.002-0.352-1.719-1.309-1.719-2.429
		C28.525,85.925,29.678,84.768,31.105,84.768z M31.104,72.042c0-0.57,0.431-1.035,0.983-1.1c0.042-0.005,0.085-0.013,0.129-0.013
		c0.614,0,1.112,0.497,1.112,1.11c0,0.615-0.498,1.112-1.112,1.112c-0.018,0-0.036-0.004-0.053-0.005
		C31.574,73.121,31.104,72.638,31.104,72.042z M37.666,55.563c0.35-0.092,0.709,0.118,0.802,0.468
		c0.091,0.352-0.118,0.71-0.469,0.802c-0.352,0.092-0.709-0.117-0.803-0.468C37.104,56.014,37.315,55.655,37.666,55.563z
		 M42.026,51.945c0.684-0.179,1.383,0.229,1.562,0.912s-0.229,1.382-0.912,1.561c-0.683,0.18-1.381-0.229-1.56-0.912
		C40.935,52.823,41.343,52.125,42.026,51.945z M40.303,49.768c0.351-0.092,0.71,0.117,0.802,0.468s-0.118,0.71-0.468,0.802
		c-0.351,0.092-0.71-0.118-0.802-0.468C39.742,50.219,39.952,49.86,40.303,49.768z M39.746,59.268
		c0.852-0.223,1.724,0.286,1.947,1.138c0.225,0.853-0.285,1.725-1.138,1.948c-0.853,0.224-1.725-0.286-1.948-1.138
		C38.384,60.364,38.894,59.492,39.746,59.268z M36.789,44.768c0.813-0.213,1.647,0.273,1.861,1.088
		c0.215,0.815-0.272,1.649-1.088,1.863c-0.814,0.214-1.647-0.274-1.861-1.088C35.487,45.816,35.974,44.982,36.789,44.768z
		 M34.99,58.809c0,0.614-0.498,1.112-1.112,1.112s-1.112-0.498-1.112-1.112c0-0.614,0.498-1.111,1.112-1.111
		S34.99,58.195,34.99,58.809z M32.659,51.06c0.294,0,0.546,0.177,0.657,0.43c-0.031,0.241-0.063,0.486-0.095,0.729
		c-0.131,0.167-0.333,0.277-0.563,0.277c-0.396,0-0.719-0.321-0.719-0.718C31.94,51.382,32.262,51.06,32.659,51.06z M30.213,53.182
		c1.104,0,2.002,0.896,2.002,2.001s-0.896,2.002-2.002,2.002s-2.001-0.897-2.001-2.002S29.108,53.182,30.213,53.182z M29.794,63.184
		c0.968,0,1.825,0.465,2.368,1.181c0.378,0.498,0.604,1.118,0.604,1.793c0,0.729-0.264,1.395-0.7,1.912
		c-0.545,0.646-1.359,1.061-2.272,1.061c-1.643,0-2.974-1.332-2.974-2.973C26.821,64.515,28.152,63.184,29.794,63.184z
		 M26.587,77.955c0.84-0.687,2.078-0.563,2.765,0.278c0.686,0.841,0.559,2.078-0.282,2.763c-0.514,0.42-1.179,0.537-1.771,0.369
		c0.296,0.004,0.592-0.098,0.838-0.299c0.564-0.46,0.651-1.295,0.188-1.861s-1.298-0.649-1.862-0.188
		c-0.347,0.284-0.512,0.707-0.483,1.122C25.706,79.376,25.926,78.494,26.587,77.955z M52.09,110.996
		c-5.286,1.002-10.452,1.119-15.004,0.824c-5.205-0.724-9.856-1.988-11.236-2.382c2.795,0.746,7.688,0.688,12.128,0.411
		c0.442,0.014,0.885,0.02,1.329,0.008c1.806,0.031,3.609-0.036,5.404-0.168c0.431-0.031,0.861-0.066,1.292-0.105
		c0,0,0.001,0,0.002,0c2.722,0.311,6.775,0.41,11.445-0.666C57.45,108.917,55.582,110.041,52.09,110.996z M48.254,106.973
		c0.263-0.011,0.523-0.026,0.786-0.039c0.662-0.031,1.325-0.062,1.985-0.101c0.617-0.051,1.233-0.102,1.851-0.15
		c0.625-0.051,1.248-0.105,1.871-0.16c0.529-0.045,1.06-0.087,1.589-0.141l4.979-0.569c0.001,0.001,0.001,0.001,0.002,0.002
		c0.011,0.011,0.021,0.022,0.03,0.034c0.005,0.006,0.01,0.011,0.016,0.018c0.001,0,0.001,0.002,0.004,0.004
		c0.074,0.094,0.146,0.198,0.211,0.314c0,0,0,0.001,0.001,0.002l0,0c-0.001,0-1.761,0.49-4.685,1.061
		c-0.846,0.061-1.688,0.131-2.531,0.203c-1.681,0.098-3.354,0.189-5.023,0.313l-1.519,0.054l-0.989,0.036
		c-0.713,0.032-1.426,0.079-2.14,0.086c-0.121,0.001-0.241,0.004-0.363,0.002c-0.606,0.004-1.211,0.011-1.817,0.021
		c-0.228,0.004-0.456,0.008-0.683,0.015c-0.833,0.035-1.665-0.021-2.497-0.024c-3.325-0.059-6.646-0.238-9.938-0.668
		c-1.646-0.211-3.289-0.47-4.916-0.818c-0.502-0.102-1.001-0.215-1.499-0.338c-0.479-0.116-0.956-0.248-1.431-0.387
		c-0.636-0.189-1.271-0.395-1.897-0.634c-0.002,0-0.004-0.001-0.006-0.002c0.697,0.515,1.448,0.949,2.228,1.331
		c-1.61-0.413-2.564-0.701-2.564-0.701c-0.552-0.438-1.014-0.65-1.387-0.742c0.021-0.121,0.044-0.24,0.071-0.354
		c0.002-0.009,0.003-0.019,0.006-0.027c0.031-0.131,0.07-0.255,0.111-0.377c5.22,2.938,19.08,3.677,29.84,2.755
		c0.015-0.002,0.029-0.003,0.045-0.005C48.083,106.98,48.168,106.977,48.254,106.973z"/>
	<path fill="#FFC107" d="M53.522,40.452c0,0,0.948,0.142,2.313,0.26c2.413,0.209,6.132,0.345,8.242-0.509
		c0,0,0.735-5.878-0.409-8.773c0,0-3.646-0.705-7.498,0c0,0,3.243,2.015,6.434,2.097c0,0-3.108,2.373-6.955,2.045
		c0,0,1.905,2.308,6.436,1.972c0,0-2.909,1.777-6.308,2.563C55.04,40.277,54.281,40.402,53.522,40.452z"/>
	<path fill="#FFC107" d="M37.321,23.564c0,0-0.597-4.669-4.662-1.396C32.659,22.167,36.268,20.69,37.321,23.564z"/>
	<path fill="#FFC107" d="M63.433,23.564c0,0-0.597-4.669-4.662-1.396C58.771,22.167,62.38,20.69,63.433,23.564z"/>
	<path fill="#FFC107" d="M52.596,15.891c0,0-0.597-4.669-4.663-1.396C47.934,14.494,51.542,13.017,52.596,15.891z"/>
	<path fill="#FFC107" d="M30.666,17.101c0,0-0.654-4.424-4.036-1.479C26.63,15.622,29.576,14.326,30.666,17.101z"/>
	<path fill="#FFC107" d="M89.786,79.378l-0.026-3.045c-0.026-2.028-0.091-4.059-0.17-6.088c-0.177-4.058-0.445-8.117-0.917-12.167
		c-0.111-1.014-0.262-2.022-0.399-3.038c-0.17-1.007-0.32-2.016-0.522-3.024c-0.399-1.989-0.884-3.98-1.65-5.943
		c-0.137-0.458-0.281-0.825-0.465-1.212c-0.189-0.398-0.418-0.771-0.661-1.145c-0.497-0.727-1.125-1.382-1.865-1.905
		c-0.739-0.517-1.584-0.909-2.455-1.1c-0.438-0.131-0.877-0.15-1.314-0.203c-0.406-0.032-0.799-0.013-1.198-0.013
		c-3.208-0.216-6.408-0.438-9.608-0.687c-0.092-0.027-0.249-0.078-0.359-0.125c-0.138-0.059-0.27-0.131-0.38-0.203
		c-0.124-0.079-0.209-0.158-0.281-0.236c-0.026-0.125-0.052-0.249-0.078-0.354c-0.144-1.944-0.262-3.881-0.387-5.819
		c0.177,0.033,0.347,0.078,0.531,0.104c0.622,0.085,1.263,0.138,1.957,0.02c0.687-0.118,1.459-0.386,2.048-0.988
		c0.144-0.144,0.255-0.321,0.38-0.484c0.13-0.164,0.209-0.334,0.273-0.518c0.072-0.176,0.15-0.36,0.203-0.536l0.093-0.517
		c0.071-0.36,0.052-0.674,0.052-1.002c0-0.34-0.032-0.634-0.065-0.922c-0.033-0.295-0.072-0.589-0.138-0.89
		c-0.045-0.295-0.124-0.603-0.216-0.91c-0.21-0.609-0.427-1.277-1.113-1.905c-0.255-0.243-0.628-0.439-1.028-0.524
		c0.006-0.235,0.021-0.464,0.021-0.7c0.006-0.694-0.04-1.388-0.151-2.082c-0.229-1.375-0.72-2.802-1.682-3.98
		c-0.956-1.172-2.344-1.99-3.745-2.324c-1.171-0.301-2.35-0.36-3.495-0.301c-0.387-0.615-0.792-1.171-1.23-1.734
		c-0.577-0.733-1.204-1.427-1.88-2.075c-1.349-1.29-2.933-2.389-4.719-3.05c-0.89-0.327-1.826-0.556-2.774-0.622
		c-0.942-0.066-1.893-0.006-2.815,0.177c-1.761,0.373-3.384,1.159-4.837,2.134C41.4,8.663,40.006,8.1,38.533,7.72
		C37,7.329,35.391,7.146,33.787,7.237c-1.604,0.079-3.222,0.367-4.733,0.956c-0.785,0.243-1.493,0.635-2.226,0.989
		c-0.518,0.262-0.994,0.576-1.479,0.89c-0.792-0.399-1.571-0.701-2.429-0.93c-1.054-0.275-2.192-0.406-3.357-0.235
		c-1.172,0.15-2.324,0.766-3.154,1.59c-0.458,0.399-0.76,0.884-1.081,1.362c-0.195,0.314-0.347,0.648-0.497,0.975
		c-0.209,0.065-0.412,0.131-0.622,0.216c-0.379,0.15-0.746,0.347-1.093,0.563c-0.7,0.445-1.322,1.074-1.734,1.827
		c-0.399,0.746-0.629,1.577-0.643,2.376c-0.038,0.399,0.026,0.779,0.04,1.172c0.026,0.157,0.06,0.314,0.093,0.471
		c-0.537,0.216-1.028,0.472-1.513,0.766c-0.674,0.413-1.296,0.917-1.839,1.493c-1.105,1.152-1.826,2.69-1.996,4.261
		C5.32,27.555,5.627,29.1,6.079,30.54c0.483,1.434,1.158,2.776,1.918,4.052l0.032,0.06l0.047,0.045
		c0.805,0.845,1.519,1.853,2.106,2.887c0.583,1.041,1.028,2.153,1.315,3.292c0.301,1.14,0.387,2.318,0.294,3.463
		c-0.052,1.166-0.425,2.271-0.825,3.352l-0.02,0.052l-0.006,0.033c-0.223,0.792-0.359,1.531-0.433,2.336
		c-0.059,0.798-0.052,1.63,0.184,2.507c0.124,0.438,0.314,0.891,0.628,1.302c0.308,0.413,0.753,0.766,1.231,0.976
		c0.458,0.203,0.916,0.295,1.354,0.321c-0.053,4.588-0.117,9.184-0.209,13.778c-0.144,6.729-0.354,13.453-0.642,20.168
		c-0.15,3.352-0.34,6.703-0.609,10.041c-0.163,1.655-0.261,3.338-0.504,4.967c-0.117,0.818-0.195,1.656-0.34,2.449l-0.472,2.291
		c-0.137,0.307-0.229,0.563-0.321,0.856c-0.098,0.334-0.176,0.681-0.229,1.034c-0.092,0.707-0.099,1.453,0.085,2.193
		c0.328,1.498,1.42,2.723,2.565,3.455c0.577,0.399,1.191,0.643,1.793,0.91c0.609,0.189,1.237,0.432,1.833,0.551
		c1.165,0.274,2.324,0.496,3.489,0.719c4.654,0.845,9.347,1.414,14.062,1.695c4.706,0.289,9.438,0.328,14.157,0.021
		c4.694-0.294,9.367-0.917,13.981-1.859c0.465-0.038,0.845-0.104,1.257-0.196c0.432-0.098,0.864-0.215,1.29-0.379
		c0.845-0.32,1.689-0.785,2.396-1.473c0.728-0.668,1.244-1.617,1.453-2.572c0.145-0.484,0.145-0.957,0.17-1.435
		c0-0.472-0.085-0.917-0.124-1.375l-0.006-0.021l-0.013-0.059c-0.177-0.693-0.341-1.434-0.485-2.154
		c-0.144-0.72-0.273-1.453-0.379-2.172c-0.104-0.727-0.188-1.453-0.229-2.167c-0.033-0.55-0.033-1.093,0.006-1.61l15.343-9.668
		c0.537-0.274,0.937-0.543,1.355-0.871c0.438-0.332,0.851-0.707,1.224-1.1c0.76-0.792,1.427-1.669,1.944-2.617
		c1.08-1.893,1.688-4,1.924-6.102c0.052-0.529,0.072-1.061,0.111-1.584C89.831,80.406,89.786,79.895,89.786,79.378z M67.307,53.358
		c-0.222-1.375-0.248-3.613,0.282-4.235c0.059-0.072,0.099-0.091,0.184-0.091h9.589c0.235,0.045,0.871,0.549,1.198,2.435
		c0.039,0.196,3.528,19.519,1.499,29.672l-0.033,0.216l0.033,0.189c0.013,0.084,0.321,2.035-2.743,3.804l-8.326,4.313
		c-0.563,0.254-1.63,0.517-2.127,0.274c-0.098-0.054-0.202-0.131-0.28-0.36l0.746-36.125L67.307,53.358z M60.258,29.125
		l-19.755-0.13l19.769,0.128L60.258,29.125z M22.391,11.158c0.838,0.223,1.729,0.589,2.441,1.008h0.006l0.635,0.32l0.543-0.379
		c0.589-0.419,1.152-0.897,1.769-1.276c0.635-0.354,1.243-0.772,1.917-1.034c1.315-0.635,2.742-0.995,4.195-1.191
		c1.453-0.189,2.952-0.144,4.418,0.118c1.466,0.255,2.934,0.72,4.242,1.395l0.196,0.098l0.158-0.105
		c1.505-0.896,3.135-1.551,4.817-1.8c1.675-0.216,3.377,0.02,4.896,0.72c1.519,0.681,2.859,1.741,4,2.992
		c1.132,1.23,2.141,2.704,2.847,4.144l0.288,0.595l0.747-0.02c0.196-0.02,0.398-0.033,0.596-0.045c0.007,0,0.007,0,0.015,0
		c5,1.08,5.465,4.307,5.465,4.307c-0.721-1.342-2.188-1.361-2.266-1.361c3.796,2.913,2.266,8.633,2.266,8.633l-5.525,0.743
		l-33.541-1.613l11.985-1.067c-5.996,0.242-20.619,0-20.619,0C17.9,24.945,19.89,21.3,19.89,21.3
		c-2.375,0.543-3.79,1.853-3.79,1.853c-1.905-3.489,1.583-5.348,1.583-5.348c-1.523-4.032,2.206-6.833,2.206-6.833
		C20.682,10.85,21.54,10.935,22.391,11.158z M66.83,113.356c-0.138,0.583-0.413,1.101-0.864,1.506
		c-0.439,0.412-1.008,0.739-1.645,0.968c-0.62,0.229-1.375,0.394-1.982,0.433l-0.092,0.007l-0.085,0.02
		c-4.53,0.885-9.125,1.459-13.74,1.748s-9.249,0.236-13.87-0.059c-4.615-0.288-9.223-0.863-13.766-1.695
		c-1.133-0.223-2.271-0.445-3.377-0.707c-0.551-0.111-1.009-0.313-1.525-0.459c-0.452-0.216-0.943-0.398-1.322-0.681
		c-0.799-0.522-1.361-1.19-1.539-1.997c-0.104-0.398-0.091-0.844-0.039-1.29c0.033-0.229,0.085-0.45,0.15-0.674
		c0.065-0.209,0.164-0.472,0.229-0.597l0.079-0.156l0.02-0.092l0.543-2.592c0.157-0.857,0.236-1.703,0.359-2.554
		c0.257-1.702,0.36-3.384,0.53-5.08c0.281-3.378,0.484-6.755,0.643-10.126c0.334-6.749,0.504-13.498,0.608-20.24
		c0.026-1.988,0.052-3.973,0.072-5.961c0.02-1.533,0.033-3.063,0.04-4.597c0.019-1.455,0.024-2.917,0.031-4.377
		c0-0.077,0.001-0.154,0.001-0.23c0.013-1.689,0.02-3.377,0.02-5.06c0.003-1.877,0.003-3.753,0-5.63
		c-0.001-0.412,0.001-0.824,0-1.236v-0.006c-0.007-0.642-0.007-1.283-0.014-1.924h0.001c-0.003-0.439-0.005-0.878-0.008-1.316
		l-0.007-1.257v-0.472c0-0.052-0.008-0.025-0.008-0.045c-0.013-0.007-0.031-0.02-0.064-0.033l-0.065-0.026l-0.033-0.02l-0.006-0.007
		c-0.013,0.007,0.006-0.02,0.032-0.071c0.04-0.085,0.079-0.171,0.105-0.269c0.025-0.085,0.046-0.203,0.052-0.262l0.006-0.052
		l0.007-0.105v-0.189l0.006-0.341l-0.006-0.641l-0.02-1.277l-0.053-2.52v-0.131l0.438,0.053l1.564-0.282l1.453-0.157
		c0.97-0.111,1.963-0.183,2.945-0.249c1.977-0.125,3.96-0.203,5.943-0.255c3.967-0.098,7.939-0.111,11.914-0.04l11.912,0.216
		c3.94,0.105,7.889,0.255,11.828,0.406c0.19,0.033,0.36,0.079,0.518,0.138c0.15,0.072,0.282,0.144,0.367,0.229
		c0.046,0.045,0.078,0.091,0.104,0.138c-0.04,0.065-0.079,0.137-0.104,0.216c-0.124,0.36-0.039,0.74,0.189,1.015
		c0.033,2.363,0.072,4.726,0.072,7.096v0.196l0.014,0.026l0.012,0.23l0.427,8.037c-1.106,1.623-0.733,4.745-0.603,5.597
		l-0.746,36.238l0.033,0.137c0,0-0.381,4.887,1.322,9.638c0.054,0.151,0.111,0.304,0.17,0.457c0.118,0.433,0.236,0.864,0.354,1.302
		l-0.04,0.026l-0.432,0.262l-0.052,0.478c-0.034,0.252-0.055,0.5-0.07,0.744c-0.002,0.037-0.002,0.072-0.005,0.109
		c-0.011,0.227-0.017,0.449-0.017,0.671c0,0.021,0.001,0.042,0.001,0.063c0,0.299,0.006,0.593,0.019,0.886
		c0.039,0.792,0.13,1.571,0.235,2.343c0.104,0.771,0.234,1.538,0.379,2.293c0.144,0.738,0.294,1.459,0.478,2.205
		c0.021,0.333,0.085,0.674,0.079,0.988C66.921,112.748,66.928,113.076,66.83,113.356z M87.953,80.857
		c-0.039,0.479-0.065,0.962-0.111,1.439c-0.019,0.162-0.043,0.324-0.066,0.484l-0.542-8.287c0.671,12.666-4.01,15.539-4.01,15.539
		l-16.283,9.18l-0.705-1.344c2.558-1.365,5.113-2.721,7.683-4.043l4.025-2.068l2.017-1.021c0.674-0.341,1.388-0.732,1.997-1.211
		c1.236-0.949,2.284-2.134,3.017-3.488c0.733-1.354,1.12-2.875,1.231-4.387c0.124-1.505,0.156-3.011,0.184-4.518
		c0.013-1.512,0.013-3.023-0.17-4.516c0.164,1.498,0.137,3.004,0.104,4.51c-0.052,1.504-0.149,3.011-0.307,4.502
		c-0.255,3.004-2.022,5.734-4.478,7.293c-0.615,0.398-1.256,0.693-1.957,0.976l-2.096,0.856l-4.194,1.695
		c-2.416,0.977-4.845,1.918-7.279,2.854v-0.536c2.88-1.224,15.088-7.063,15.088-7.063c3.66-2.664,3.587-9.432,3.313-12.718
		l0.771,6.669c1.296-8.811-2.042-29.953-2.042-29.953l0.491,11.541l-1.911-11.79c-0.052-1.525-0.32-3.116-1.211-4.458
		c-0.445-0.661-1.067-1.224-1.813-1.577c-0.118-0.053-0.241-0.098-0.364-0.14c-0.044-0.016-0.088-0.03-0.133-0.044
		c-0.101-0.03-0.202-0.057-0.307-0.081c-0.029-0.007-0.057-0.017-0.087-0.023l2.227,0.026c2.54,0.078,4.418,6.14,4.418,6.14
		c-0.654-8.019-5.564-7.658-5.564-7.658L67.86,43.008c0-0.419-0.02-0.851-0.052-1.295c0.111,0.032,0.229,0.059,0.367,0.091
		l0.072,0.013l0.064,0.007c3.246,0.144,6.486,0.314,9.728,0.498h0.125c0.353,0,0.713-0.04,1.06-0.013
		c0.341,0.045,0.694,0.045,1.021,0.144c0.674,0.13,1.29,0.425,1.846,0.812c0.556,0.38,1.041,0.878,1.439,1.453
		c0.387,0.557,0.721,1.25,0.897,1.84l0.02,0.079l0.026,0.052c1.4,3.594,2.009,7.626,2.468,11.592
		c0.445,3.987,0.7,8.013,0.857,12.038c0.072,2.011,0.124,4.024,0.144,6.035l0.014,3.03C87.953,79.875,87.999,80.378,87.953,80.857z"
		/>
</g>
<g>
	<path d="M3513.354-1591.956c0,0,0.066-0.039,0.182-0.094c0.049-0.021,0.101-0.045,0.165-0.071c0.025-0.011,0.052-0.019,0.079-0.028
		c0.096-0.035,0.198-0.071,0.318-0.104c0.013-0.002,0.025-0.004,0.038-0.008c0.137-0.034,0.286-0.064,0.446-0.08
		c0.002-0.001,0.002-0.001,0.004-0.001c0.096-0.01,0.195-0.015,0.298-0.015c0.009,0,0.019,0,0.026,0
		c0.098,0,0.196,0.008,0.299,0.021c0.015,0.002,0.027,0.002,0.044,0.004c0.099,0.014,0.202,0.036,0.304,0.062
		c0.018,0.005,0.033,0.008,0.051,0.012c0.105,0.029,0.211,0.068,0.316,0.113c0.016,0.006,0.031,0.011,0.047,0.018
		c0.113,0.05,0.227,0.111,0.339,0.182c0.009,0.006,0.02,0.01,0.028,0.016c0.49,0.314,0.979,0.834,1.408,1.663
		c0,0,0-0.005-0.001-0.007c0.001,0.002,0.002,0.004,0.003,0.006c0,0-0.08-0.547-0.301-1.176c-0.031-0.086-0.064-0.174-0.101-0.262
		c-0.003-0.006-0.006-0.014-0.01-0.02c-0.056-0.135-0.114-0.268-0.185-0.398c-0.016-0.031-0.037-0.06-0.055-0.09
		c-0.059-0.105-0.119-0.211-0.188-0.309c-0.091-0.125-0.188-0.241-0.295-0.344c-0.429-0.409-1.004-0.598-1.773-0.248
		c-0.434,0.197-0.928,0.563-1.492,1.156c0,0,0.008-0.004,0.01-0.004C3513.36-1591.959,3513.357-1591.958,3513.354-1591.956z"/>
	<path d="M3499.299-1468.909c0.662-2.748,1.62-5.446,2.813-8.05c1.177-2.613,2.589-5.136,4.162-7.541
		c0.396-0.598,0.802-1.19,1.22-1.765l1.3-1.759l1.342-1.833l0.669-0.917l0.613-0.955c1.671-2.521,3.182-5.144,4.541-7.837
		c2.719-5.393,4.813-11.072,6.375-16.875c3.104-11.629,4.039-23.684,3.729-35.598c-0.177-5.965-0.726-11.91-1.563-17.806
		c-0.842-5.823-1.92-11.589-3.487-17.293c0.319-0.842,0.582-1.715,0.702-2.636c0.143-1.079,0.09-2.25-0.387-3.313
		c-0.465-1.069-1.36-1.896-2.34-2.396c-0.917-0.467-1.872-0.726-2.887-0.825c-0.457-0.878-1.018-1.71-1.709-2.434
		c-0.761-0.78-1.665-1.423-2.653-1.881c-0.991-0.451-2.055-0.728-3.127-0.84c-0.989-0.097-1.961-0.079-2.964,0.091
		c-1.212-1.383-2.566-2.65-4.078-3.719c-1.574-1.124-3.339-2.001-5.201-2.559c-1.86-0.567-3.826-0.773-5.766-0.662
		c-1.896,0.123-3.747,0.512-5.528,1.295c-1.037-0.122-2.086-0.195-3.146-0.155c-1.096,0.045-2.215,0.198-3.276,0.646
		c-1.054,0.43-2.041,1.258-2.508,2.367c-0.392,0.929-0.461,1.903-0.312,2.873c-1.891,0.033-3.8,0.176-5.659,0.766
		c-1.009,0.331-2.023,0.813-2.811,1.654c-0.694,0.748-1.093,1.797-0.941,2.87c-0.642,0.286-1.265,0.655-1.816,1.178
		c-0.641,0.601-1.133,1.472-1.271,2.41c-0.148,0.938,0.006,1.87,0.289,2.704c0.165,0.469,0.354,0.898,0.582,1.32
		c-1.76,5.646-3.064,11.357-4.142,17.139c-1.069,5.854-1.857,11.766-2.282,17.711c-0.806,11.88-0.345,23.938,2.243,35.659
		c1.308,5.849,3.149,11.598,5.625,17.082c1.238,2.741,2.63,5.416,4.186,7.997l0.567,0.976l0.627,0.942l1.259,1.881l1.226,1.816
		c0.396,0.598,0.776,1.211,1.149,1.828c2.946,4.966,5.235,10.383,6.298,15.986c0.505,2.799,0.686,5.655,0.314,8.433
		c-0.318,2.788-1.277,5.447-2.643,7.872l-0.037,0.066l-0.031,0.065c-0.099,0.204-0.277,0.534-0.456,0.801
		c-0.172,0.282-0.38,0.556-0.582,0.827c-0.426,0.531-0.875,1.056-1.388,1.52c-1.003,0.95-2.153,1.753-3.382,2.426
		c-1.252,0.633-2.566,1.164-3.947,1.518c-0.679,0.209-1.392,0.308-2.088,0.47c-0.708,0.11-1.426,0.185-2.142,0.28l-0.179,0.024
		l-0.058,0.021c-0.775,0.285-1.42,0.611-2.09,1.002c-0.654,0.391-1.287,0.833-1.866,1.359c-0.575,0.529-1.097,1.144-1.509,1.844
		c-0.399,0.713-0.652,1.512-0.754,2.328v0.002l-0.021,0.129l0.031,0.121c0.065,0.25,0.109,0.309,0.171,0.432
		c0.06,0.107,0.122,0.197,0.185,0.291c0.131,0.17,0.27,0.326,0.413,0.459c0.287,0.275,0.597,0.483,0.905,0.677
		c0.627,0.366,1.273,0.618,1.922,0.833c0.629,0.201,1.26,0.352,1.894,0.471h-0.007c0.334,0.058,17.399,5.318,51.824,1.141
		l-0.644-0.006c0.647-0.092,1.298-0.215,1.948-0.392c0.655-0.187,1.313-0.408,1.955-0.743c0.317-0.181,0.635-0.373,0.936-0.635
		c0.148-0.127,0.295-0.272,0.434-0.438c0.141-0.197,0.254-0.311,0.386-0.68l0.01-0.037l0.037-0.127l-0.017-0.125
		c-0.098-0.817-0.344-1.611-0.732-2.314c-0.396-0.695-0.895-1.309-1.448-1.845c-0.559-0.528-1.159-0.991-1.795-1.397
		c-0.315-0.205-0.641-0.391-0.975-0.566c-0.164-0.09-0.336-0.17-0.504-0.253l-0.263-0.118l-0.133-0.059l-0.068-0.027
		c-0.045-0.02-0.112-0.043-0.17-0.059c-0.742-0.133-1.504-0.248-2.234-0.395c-0.694-0.197-1.409-0.325-2.083-0.572
		c-1.373-0.432-2.67-1.039-3.896-1.744c-1.2-0.744-2.319-1.613-3.268-2.634c-0.487-0.497-0.906-1.052-1.302-1.61
		c-0.188-0.285-0.377-0.572-0.534-0.866c-0.162-0.279-0.321-0.619-0.406-0.835l-0.011-0.025l-0.051-0.104
		c-1.217-2.513-1.979-5.225-2.125-8.009c-0.104-1.388-0.045-2.789,0.101-4.182
		C3498.72-1466.143,3498.983-1467.533,3499.299-1468.909z M3486.115-1537.975c-0.602-0.014-1.08-0.512-1.065-1.115
		c0.013-0.602,0.512-1.079,1.114-1.066c0.603,0.014,1.08,0.513,1.066,1.115C3487.217-1538.44,3486.718-1537.961,3486.115-1537.975z
		 M3485.08-1545.286c-0.39-0.008-0.698-0.331-0.689-0.721c0.009-0.389,0.331-0.697,0.72-0.688c0.39,0.009,0.699,0.331,0.69,0.72
		C3485.791-1545.585,3485.469-1545.278,3485.08-1545.286z M3484.586-1542.659c-0.023,1.084-0.923,1.944-2.009,1.92
		c-1.084-0.022-1.942-0.922-1.92-2.007c0.023-1.085,0.923-1.944,2.009-1.921C3483.75-1544.643,3484.61-1543.744,3484.586-1542.659z
		 M3482.037-1534.862c1.611,0.035,2.889,1.369,2.854,2.98c-0.034,1.61-1.37,2.888-2.979,2.853c-1.611-0.036-2.89-1.37-2.854-2.98
		C3479.093-1533.621,3480.427-1534.897,3482.037-1534.862z M3495.299-1501.672c-0.646-0.014-1.254-0.153-1.816-0.385
		c-1.869-0.773-3.168-2.631-3.121-4.775c0.062-2.789,2.371-5,5.16-4.938s5,2.372,4.938,5.161c-0.021,1.004-0.34,1.932-0.861,2.707
		C3498.668-1502.526,3497.084-1501.633,3495.299-1501.672z M3499.594-1531.063c0.016-0.674,0.574-1.209,1.247-1.193
		c0.675,0.014,1.208,0.572,1.194,1.246L3499.594-1531.063z M3499.934-1525.27c-0.041,1.878-1.597,3.367-3.475,3.326
		c-1.879-0.042-3.367-1.598-3.326-3.476c0.042-1.878,1.598-3.366,3.475-3.325C3498.487-1528.704,3499.975-1527.147,3499.934-1525.27
		z M3502.582-1517.16c-1.043-0.022-1.871-0.888-1.848-1.93c0.023-1.044,0.887-1.87,1.932-1.849c1.041,0.023,1.868,0.889,1.846,1.931
		C3504.489-1517.964,3503.625-1517.137,3502.582-1517.16z M3485.336-1606.159c1.401-0.636,2.985-1.01,4.563-1.179
		c0.253-0.026,0.507-0.062,0.76-0.077c1.836-0.103,3.693,0.093,5.455,0.631c1.762,0.529,3.435,1.359,4.938,2.436
		c0.792,0.56,1.54,1.181,2.249,1.846c0.643,0.604,1.255,1.242,1.833,1.917l0.168,0.195h0.001l0.003,0.003l0.171-0.033l0.106-0.018
		c0.217-0.045,0.438-0.078,0.664-0.105c0.693-0.082,1.418-0.085,2.121-0.023c0.049,0.005,0.098,0.006,0.146,0.011
		c0.277,0.029,0.551,0.072,0.822,0.124c0.646,0.125,1.274,0.318,1.875,0.578c0.051,0.021,0.102,0.038,0.15,0.061
		c0.254,0.119,0.501,0.254,0.742,0.398c0.597,0.358,1.146,0.789,1.637,1.288c0.677,0.71,1.236,1.534,1.675,2.425l0,0l0.097,0.188
		l0.021,0.041h0.001l0,0l0.271,0.026c0.351,0.034,0.707,0.105,1.063,0.194c0.578,0.146,1.146,0.354,1.646,0.635
		c0.11,0.061,0.209,0.135,0.313,0.203c0.632,0.416,1.144,0.967,1.438,1.631c0.018,0.04,0.043,0.076,0.06,0.117
		c0.338,0.825,0.371,1.771,0.213,2.705c-0.063,0.422-0.177,0.836-0.306,1.25c-0.08,0.253-0.161,0.506-0.258,0.757l-53.53-1.178
		l41.95,0.923c-11.389-1.114-21.711-2.761-21.711-2.761c-3.01-3.386-8.526-1.888-8.885-1.796c0.04-0.039,0.157-0.148,0.336-0.289
		c0.004-0.002,0.01-0.006,0.014-0.01c0.084-0.065,0.177-0.133,0.285-0.207c0.124-0.084,0.262-0.172,0.414-0.257
		c0.012-0.007,0.025-0.014,0.037-0.021c0.082-0.045,0.168-0.088,0.258-0.131c0.025-0.013,0.056-0.025,0.082-0.037
		c0.082-0.037,0.162-0.071,0.248-0.104c0.039-0.015,0.08-0.028,0.117-0.042c0.082-0.027,0.163-0.055,0.247-0.078
		c0.048-0.014,0.097-0.024,0.145-0.036c0.082-0.02,0.164-0.038,0.248-0.054c0.053-0.009,0.106-0.014,0.162-0.021
		c0.082-0.011,0.166-0.021,0.252-0.025c0.058-0.003,0.116-0.001,0.175-0.001c0.087,0,0.171,0,0.259,0.007
		c0.063,0.005,0.124,0.018,0.188,0.026c0.086,0.012,0.172,0.023,0.259,0.043c0.067,0.016,0.136,0.039,0.204,0.061
		c0.085,0.025,0.168,0.047,0.254,0.08c0.08,0.031,0.16,0.074,0.24,0.113c0.074,0.035,0.147,0.064,0.224,0.107
		c0.155,0.09,0.313,0.191,0.468,0.313l0,0c0,0.001,0.002,0.002,0.002,0.002s-0.198-0.38-0.543-0.807
		c-0.75-0.929-2.189-2.075-3.768,0.006c-0.271,0.357-0.545,0.805-0.822,1.37c-0.205-3.888-4.932-3.619-4.932-3.619
		c1.898-3.642,5.988-3.47,5.988-3.47c-0.975-5.115,4.684-6.123,6.15-6.3c0.03,0.003,0.062,0.005,0.09,0.009h0.002l0.129,0.014
		l0.084-0.039L3485.336-1606.159z M3460.842-1563.153c0.092-0.782,0.188-1.563,0.289-2.344c0.066-0.516,0.137-1.031,0.208-1.547
		c0.13-0.923,0.267-1.844,0.411-2.766c0.057-0.359,0.108-0.72,0.168-1.079c0.211-1.3,0.438-2.599,0.684-3.893
		c0.039-0.21,0.084-0.419,0.125-0.63c0.214-1.109,0.439-2.215,0.678-3.318c0.07-0.33,0.145-0.659,0.217-0.988
		c0.236-1.058,0.482-2.113,0.742-3.164c0.063-0.255,0.121-0.51,0.187-0.764c0.332-1.318,0.678-2.633,1.047-3.939l53.983,1.188
		c0.063,0.278,0.119,0.56,0.181,0.838c0.211,0.962,0.416,1.924,0.606,2.89c0.094,0.467,0.182,0.936,0.271,1.404
		c0.166,0.875,0.325,1.753,0.479,2.631c0.07,0.41,0.142,0.819,0.209,1.229c0.202,1.237,0.396,2.477,0.569,3.72
		c0.005,0.032,0.01,0.064,0.015,0.098c0.191,1.374,0.363,2.75,0.521,4.127c0.021,0.178,0.038,0.354,0.059,0.531
		c0.134,1.199,0.253,2.399,0.36,3.602c0.021,0.217,0.04,0.435,0.059,0.652c0.129,1.488,0.235,2.979,0.326,4.47
		c-1.794,0.287-3.579,0.536-5.357,0.757c0.363,9.571-0.408,28.557-10.906,39.479c0,0,7.59-21.155,4.213-38.488
		c-0.02-0.099-0.041-0.195-0.063-0.293c-1.284,0.105-2.562,0.195-3.828,0.271c0.045,0.3,0.09,0.599,0.129,0.9
		c1.686,13.32-3.063,29.521-3.063,29.521c1.666-8.631-0.545-21.485-2.049-28.525c-0.126-0.593-0.247-1.146-0.361-1.65
		c-14.202,0.437-26.875-0.797-35.74-2.078c-0.003-0.135-0.007-0.265-0.01-0.4c-0.024-1.623-0.029-3.293-0.017-4.998
		c5.545,1.615,10.996,2.366,15.77,2.654c9.132,0.555,15.771-0.578,15.771-0.578c-1.688-0.107-3.892-0.42-6.273-0.834
		c-7.912-1.375-17.845-3.889-17.845-3.889l22.319-2.896l-21.275-3.238l21.452-4.691l-20.384-2.554l18.922-3.793l-26.707-0.587
		c-1.959,6.322-3.539,19.859-3.539,19.859c0.273,0.089,0.55,0.17,0.822,0.254c0,0,0.001,0,0.001,0.001
		c-0.008,0.115-0.017,0.229-0.024,0.345c-0.014,0.178-0.024,0.356-0.037,0.535c-0.014,0.175-0.024,0.352-0.036,0.527
		c-0.088,1.31-0.17,2.672-0.24,4.079c-1.557-0.233-2.978-0.466-4.253-0.692c0.01-0.098,0.02-0.195,0.028-0.293
		C3460.711-1562.053,3460.779-1562.603,3460.842-1563.153z M3507.483-1443.766c0.255,0.098,0.51,0.188,0.764,0.275
		c0.442,0.154,0.887,0.299,1.336,0.42c0.51,0.159,1.031,0.26,1.551,0.363c0.238,0.049,0.479,0.099,0.718,0.156
		c-0.004,0.006-0.013,0.024-0.026,0.053c-0.001,0.002-0.003,0.004-0.004,0.006c-0.015,0.027-0.035,0.064-0.063,0.107
		c-0.019,0.027-0.045,0.063-0.068,0.096c-0.02,0.027-0.036,0.052-0.063,0.084c-0.056,0.068-0.123,0.148-0.205,0.234
		c-0.004,0.002-0.007,0.006-0.01,0.008c-0.044,0.046-0.093,0.092-0.145,0.143c-0.005,0.004-0.012,0.01-0.018,0.015
		c-0.052,0.048-0.106,0.097-0.166,0.146c-0.008,0.008-0.018,0.015-0.025,0.021c-0.061,0.051-0.122,0.102-0.19,0.154
		c-0.012,0.009-0.024,0.018-0.037,0.026c-0.066,0.051-0.139,0.104-0.215,0.158c-0.017,0.011-0.035,0.021-0.051,0.032
		c-0.077,0.054-0.155,0.105-0.242,0.16c-0.021,0.013-0.043,0.025-0.063,0.039c-0.084,0.052-0.172,0.106-0.267,0.159
		c-0.03,0.018-0.063,0.035-0.096,0.053c-0.091,0.051-0.183,0.101-0.28,0.152c-0.04,0.021-0.086,0.043-0.128,0.064
		c-0.096,0.047-0.19,0.096-0.293,0.145c-0.149,0.07-0.307,0.141-0.471,0.211c-1.095,0.467-2.563,0.939-4.525,1.346
		c-0.808,0.166-1.691,0.322-2.676,0.461h0.004l0,0c0,0,0.155,0.006,0.424,0.009c0.021-0.001,0.034,0,0.054,0.001
		c0.002,0,0.006-0.001,0.008-0.001c2.158,0.021,10.824-0.106,12.834-3.435c0.297,0.147,0.592,0.308,0.873,0.483
		c0.15,0.095,0.295,0.198,0.441,0.298c0.128,0.085,0.26,0.165,0.381,0.256c0.266,0.197,0.52,0.407,0.75,0.635
		c0.2,0.193,0.381,0.399,0.553,0.609c0.225,0.275,0.432,0.562,0.604,0.863c-0.132,0.198-0.303,0.385-0.488,0.564
		c-1.584,1.525-4.933,2.375-7.647,2.831c-0.433,0.071-0.849,0.135-1.239,0.188l-0.186,0.006l-1.139,0.029l-2.693,0.068
		c-2.549,0.044-5.104,0.053-7.648-0.014c-1.801-0.053-3.606-0.133-5.378-0.314c-0.726-0.076-1.444-0.164-2.153-0.283l-0.028-0.005
		l-0.039-0.009l-1.091-0.025l-0.031,0.009l-0.034,0.004c-0.171,0.021-0.347,0.03-0.521,0.048c-2.779-0.441-5.448-0.961-7.858-1.482
		c0.062,0,0.119-0.002,0.18-0.003c0.334-0.001,0.666-0.005,0.996-0.011c0.107-0.003,0.216-0.006,0.322-0.008
		c0.322-0.007,0.642-0.016,0.957-0.027c0.108-0.003,0.22-0.008,0.329-0.012c0.307-0.012,0.607-0.024,0.907-0.039
		c0.112-0.006,0.226-0.011,0.338-0.018c0.291-0.014,0.575-0.031,0.857-0.047c0.112-0.008,0.225-0.015,0.335-0.021
		c0.276-0.019,0.547-0.038,0.815-0.059c0.104-0.006,0.212-0.015,0.316-0.023c0.263-0.02,0.518-0.041,0.771-0.063
		c0.102-0.008,0.205-0.018,0.307-0.025c0.242-0.021,0.477-0.044,0.706-0.064c0.101-0.011,0.202-0.021,0.302-0.03
		c0.227-0.021,0.441-0.044,0.654-0.066c0.09-0.01,0.181-0.02,0.27-0.028c0.214-0.024,0.416-0.048,0.617-0.07
		c0.074-0.009,0.15-0.017,0.221-0.025c0.207-0.024,0.398-0.048,0.586-0.071c0.055-0.007,0.11-0.014,0.162-0.021
		c0.191-0.025,0.367-0.049,0.537-0.07c0.039-0.006,0.084-0.012,0.123-0.018c0.189-0.025,0.363-0.049,0.521-0.071
		c0.008-0.001,0.018-0.003,0.023-0.003c0.201-0.029,0.367-0.053,0.514-0.076c0.347-0.053,0.546-0.086,0.546-0.086
		c-0.015,0-0.023,0.001-0.037,0.002c-0.616,0.021-1.216,0.032-1.812,0.043c-0.311,0.005-0.615,0.008-0.921,0.01
		c-0.284,0.002-0.564,0.004-0.845,0.004c-0.342,0-0.682,0-1.015-0.004c-0.255-0.002-0.503-0.008-0.754-0.012
		c-0.456-0.008-0.906-0.02-1.35-0.033c-0.399-0.013-0.801-0.027-1.19-0.044c-0.051-0.003-0.101-0.006-0.15-0.008
		c7.436-0.22,13.702-1.325,13.702-1.325c-4.568,0.572-8.94,0.013-12.487-0.82c0.021,0.002,0.039,0.002,0.06,0.003
		c1.127,0.073,2.241,0.096,3.335,0.079c0.068-0.002,0.136-0.003,0.203-0.005c0.509-0.011,1.013-0.028,1.512-0.056
		c0.029-0.002,0.06-0.003,0.089-0.005c1.094-0.063,2.156-0.161,3.187-0.29c0.024-0.002,0.051-0.006,0.075-0.009
		c4.695-0.591,8.64-1.757,11.034-2.597c0.003-0.001,0.005-0.002,0.007-0.002c0.247-0.087,0.478-0.169,0.688-0.247
		c0.029-0.011,0.058-0.021,0.085-0.032c0.19-0.07,0.368-0.137,0.53-0.199C3507.447-1443.752,3507.467-1443.76,3507.483-1443.766z
		 M3498.971-1450.546c0.035,0.06,0.072,0.122,0.108,0.181c0.218,0.34,0.445,0.656,0.688,0.982c0.505,0.629,1.028,1.25,1.616,1.791
		c0.527,0.497,1.086,0.955,1.664,1.385c0.091,0.066,0.179,0.134,0.27,0.199c0.615,0.439,1.252,0.844,1.906,1.21
		c0.552,0.292,1.121,0.548,1.69,0.788c0.024,0.011,0.048,0.022,0.07,0.033c-1.699,0.266-3.315,0.492-4.854,0.681
		c-0.041,0.005-0.082,0.011-0.123,0.016c-0.5,0.062-0.993,0.118-1.479,0.171c0,0,0,0-0.009,0
		c-19.677,1.256-17.981-4.43-17.955-4.512c0.02,0.004,0.039,0.008,0.059,0.011c6.265,2.075,14.905-0.948,15.318-1.095
		c0.001-0.002,0.001,0,0.003,0c0.004-0.003,0.014-0.005,0.014-0.005c-0.002,0-0.004,0-0.006,0c0.002,0,0.008-0.003,0.008-0.003
		c-4.966,0.408-9.281-2.27-10.643-3.664c-1.37-1.394,0.345-15.68,0.345-15.68c3.896,0.64,6.089-3.531,6.089-3.531l0.002-0.005
		c0.271-0.071,0.541-0.164,0.813-0.267c0.059-0.023,0.118-0.051,0.178-0.074c0.203-0.082,0.407-0.174,0.611-0.274
		c0.086-0.042,0.172-0.087,0.258-0.134c0.19-0.104,0.382-0.215,0.572-0.336c0.077-0.05,0.157-0.096,0.237-0.149
		c0.258-0.173,0.515-0.358,0.771-0.565c0.01-0.008,0.021-0.014,0.029-0.021c-0.158,0.491-0.304,0.987-0.445,1.484
		c-0.219,0.767-0.425,1.537-0.595,2.321c-0.034,0.154-0.061,0.311-0.092,0.465c-0.464,2.313-0.692,4.695-0.584,7.076
		c0.025,0.584,0.063,1.168,0.133,1.751c0.146,1.53,0.47,3.046,0.937,4.515c0.361,1.133,0.81,2.236,1.338,3.297
		c0.185,0.37,0.375,0.735,0.578,1.094l-0.014-0.029c0.006,0.009,0.01,0.019,0.015,0.027c0.041,0.084,0.083,0.158,0.124,0.238
		c0.052,0.099,0.103,0.201,0.154,0.295C3498.836-1450.764,3498.905-1450.656,3498.971-1450.546z"/>
	<path d="M3492.696-1599.993c0.039-0.013,0.08-0.025,0.121-0.039c0.135-0.043,0.273-0.086,0.426-0.123
		c0.011-0.002,0.021-0.004,0.027-0.006c0.127-0.029,0.26-0.055,0.396-0.076c0.033-0.006,0.066-0.01,0.102-0.014
		c0.117-0.017,0.237-0.028,0.36-0.036c0.05-0.003,0.101-0.005,0.151-0.007c0.11-0.003,0.225-0.002,0.339,0.004
		c0.063,0.002,0.126,0.008,0.188,0.013c0.107,0.01,0.218,0.024,0.325,0.044c0.071,0.012,0.143,0.024,0.214,0.041
		c0.104,0.023,0.209,0.055,0.314,0.087c0.075,0.024,0.153,0.048,0.229,0.077c0.103,0.039,0.203,0.088,0.305,0.137
		c0.08,0.039,0.16,0.076,0.24,0.121c0.101,0.057,0.197,0.125,0.297,0.193c0.08,0.055,0.16,0.105,0.24,0.168
		c0.101,0.078,0.198,0.174,0.297,0.266c0.075,0.07,0.151,0.134,0.226,0.211c0.111,0.117,0.217,0.254,0.324,0.389
		c0.059,0.073,0.118,0.137,0.177,0.217c0.163,0.225,0.321,0.473,0.475,0.748v-0.002c0,0.002,0.002,0.003,0.002,0.004
		c0,0-0.156-0.904-0.646-1.803c-0.012-0.024-0.027-0.048-0.039-0.071c-0.029-0.05-0.057-0.101-0.088-0.149
		c-0.035-0.059-0.074-0.118-0.113-0.178c-0.01-0.012-0.017-0.025-0.024-0.039c-0.904-1.312-2.622-2.272-5.755,0.224
		c0,0,0.237-0.144,0.632-0.302C3492.518-1599.928,3492.602-1599.959,3492.696-1599.993z"/>
	<path d="M3484.975-1604.745c-0.016,0.009-0.033,0.015-0.051,0.024c-0.606,0.335-1.238,1.151-1.82,2.776
		c0,0,0.006-0.013,0.018-0.033c0,0.006-0.002,0.01-0.006,0.016c0.066-0.113,0.399-0.668,1.008-1.133
		c0-0.002,0.002-0.002,0.004-0.003c0.08-0.063,0.168-0.122,0.259-0.179c0.016-0.01,0.03-0.02,0.047-0.029
		c0.08-0.049,0.164-0.096,0.252-0.139c0.031-0.016,0.063-0.029,0.094-0.043c0.078-0.036,0.158-0.07,0.242-0.102
		c0.047-0.016,0.098-0.029,0.146-0.045c0.075-0.022,0.15-0.045,0.229-0.063c0.065-0.015,0.136-0.023,0.206-0.034
		c0.066-0.01,0.135-0.021,0.205-0.028c0.092-0.006,0.188-0.006,0.283-0.006c0.055,0.002,0.108-0.002,0.166,0.002
		c0.129,0.008,0.262,0.025,0.396,0.049c0.031,0.006,0.062,0.007,0.093,0.013c0.346,0.069,0.716,0.19,1.112,0.382
		c0,0-0.002-0.002-0.004-0.004c0.002,0.001,0.004,0.001,0.007,0.002c0,0-1.273-2.07-2.736-1.492
		C3485.073-1604.793,3485.025-1604.769,3484.975-1604.745z"/>
	<path d="M3506.148-1593.961c-0.006,0.007-0.011,0.013-0.017,0.02c0.059-0.056,0.338-0.31,0.731-0.543
		c0.021-0.012,0.036-0.023,0.06-0.036c0.14-0.079,0.293-0.155,0.457-0.218c0.006-0.002,0.012-0.004,0.018-0.006
		c0.088-0.033,0.178-0.062,0.271-0.086c0.015-0.004,0.029-0.006,0.043-0.01c0.088-0.021,0.173-0.037,0.263-0.047
		c0.021-0.003,0.047-0.003,0.069-0.005c0.082-0.007,0.164-0.011,0.248-0.007c0.032,0.002,0.064,0.008,0.099,0.012
		c0.076,0.008,0.151,0.017,0.228,0.035c0.045,0.01,0.09,0.029,0.135,0.045c0.063,0.021,0.129,0.039,0.193,0.07
		c0.065,0.029,0.131,0.073,0.196,0.115c0.042,0.025,0.085,0.047,0.127,0.078c0.331,0.244,0.648,0.633,0.931,1.217
		c0,0-0.004-0.025-0.015-0.067c-0.058-0.253-0.304-1.181-0.838-1.742c-0.003-0.003-0.006-0.007-0.009-0.009
		c-0.034-0.037-0.071-0.07-0.107-0.104c-0.008-0.007-0.016-0.013-0.022-0.02c-0.033-0.027-0.065-0.054-0.101-0.078
		c-0.015-0.01-0.027-0.019-0.039-0.027c-0.031-0.02-0.063-0.039-0.095-0.057c-0.019-0.01-0.037-0.019-0.057-0.027
		c-0.027-0.014-0.056-0.027-0.084-0.038c-0.024-0.009-0.048-0.018-0.072-0.025c-0.024-0.009-0.052-0.016-0.077-0.022
		c-0.029-0.007-0.06-0.012-0.088-0.018c-0.022-0.004-0.048-0.006-0.07-0.008c-0.034-0.004-0.07-0.006-0.105-0.006
		c-0.02-0.001-0.041,0-0.061,0.002c-0.041,0.002-0.082,0.004-0.125,0.01c-0.017,0.003-0.032,0.006-0.049,0.01
		c-0.048,0.008-0.098,0.019-0.146,0.033c-0.012,0.002-0.021,0.007-0.033,0.01c-0.057,0.018-0.115,0.038-0.174,0.063
		c-0.004,0.001-0.006,0.003-0.01,0.005c-0.479,0.205-1.04,0.664-1.701,1.508C3506.119-1593.934,3506.129-1593.946,3506.148-1593.961
		z"/>
	<path d="M3509.891-1563.317c2.434-0.129,5.297-0.398,7.668-0.942c0.928-0.213,1.783-0.468,2.504-0.774
		c0,0-0.491-11.984-2.914-20.002l-9.688-0.213l8.606,4.398l-8.747,1.912l10.087,4.082l-11.329,5.137l11.453,0.252l-11.493,5.568
		l-1.43,0.692c0,0,0.625,0.013,1.637,0.003C3507.188-1563.213,3508.461-1563.241,3509.891-1563.317z"/>
	<path d="M3495.059-1593.75c0,0-0.592-5.764-5.538-2.243C3489.521-1595.994,3492.688-1597.18,3495.059-1593.75z"/>
	<path d="M3506.156-1595.627c0,0-1.06-4.895-4.254-1.295C3501.903-1596.922,3504.818-1598.125,3506.156-1595.627z"/>
	<path d="M3505.225-1591.209c0,0-1.297-4.424-3.447-0.076C3501.778-1591.286,3503.801-1593.363,3505.225-1591.209z"/>
</g>
<g enable-background="new    ">
	<path fill="#0D47A1" d="M102.841,46.5h28.28c4.713,0,8.332,1.167,10.855,3.501c2.523,2.335,3.785,5.226,3.785,8.671
		c0,2.891-0.9,5.369-2.701,7.438c-1.201,1.379-2.957,2.468-5.269,3.268c3.512,0.846,6.097,2.296,7.753,4.353
		s2.484,4.642,2.484,7.754c0,2.534-0.589,4.813-1.767,6.836c-1.179,2.023-2.791,3.624-4.836,4.803
		c-1.267,0.733-3.18,1.268-5.736,1.601c-3.402,0.445-5.659,0.667-6.77,0.667h-26.079V46.5z M118.082,65.676h6.57
		c2.356,0,3.996-0.405,4.919-1.218c0.922-0.812,1.384-1.984,1.384-3.518c0-1.423-0.461-2.535-1.384-3.335
		c-0.923-0.801-2.529-1.201-4.819-1.201h-6.67V65.676z M118.082,84.885h7.704c2.601,0,4.436-0.461,5.502-1.384
		c1.067-0.923,1.601-2.162,1.601-3.719c0-1.445-0.528-2.606-1.584-3.485c-1.056-0.878-2.907-1.317-5.552-1.317h-7.67V84.885z"/>
	<path fill="#0D47A1" d="M192.37,81.05h-27.213c0.245,2.179,0.834,3.802,1.768,4.869c1.312,1.533,3.023,2.301,5.136,2.301
		c1.334,0,2.602-0.334,3.802-1.001c0.734-0.422,1.523-1.167,2.368-2.234l13.373,1.234c-2.046,3.558-4.514,6.108-7.404,7.653
		s-7.037,2.318-12.439,2.318c-4.691,0-8.382-0.662-11.072-1.984c-2.69-1.323-4.919-3.424-6.687-6.304
		c-1.768-2.879-2.651-6.264-2.651-10.154c0-5.536,1.772-10.016,5.319-13.439c3.546-3.424,8.443-5.136,14.69-5.136
		c5.069,0,9.071,0.767,12.006,2.301c2.935,1.534,5.169,3.758,6.703,6.67c1.534,2.913,2.301,6.703,2.301,11.372V81.05z
		 M178.564,74.547c-0.267-2.624-0.973-4.503-2.118-5.637c-1.146-1.134-2.651-1.7-4.519-1.7c-2.157,0-3.88,0.855-5.169,2.567
		c-0.823,1.067-1.346,2.657-1.567,4.77H178.564z"/>
	<path fill="#0D47A1" d="M235.945,81.05h-27.213c0.245,2.179,0.834,3.802,1.768,4.869c1.312,1.533,3.023,2.301,5.136,2.301
		c1.334,0,2.602-0.334,3.802-1.001c0.734-0.422,1.523-1.167,2.368-2.234l13.373,1.234c-2.046,3.558-4.514,6.108-7.403,7.653
		c-2.891,1.545-7.037,2.318-12.439,2.318c-4.691,0-8.382-0.662-11.072-1.984c-2.69-1.323-4.919-3.424-6.687-6.304
		c-1.768-2.879-2.651-6.264-2.651-10.154c0-5.536,1.772-10.016,5.319-13.439c3.546-3.424,8.443-5.136,14.69-5.136
		c5.069,0,9.07,0.767,12.006,2.301c2.935,1.534,5.169,3.758,6.703,6.67c1.534,2.913,2.301,6.703,2.301,11.372V81.05z
		 M222.138,74.547c-0.267-2.624-0.973-4.503-2.117-5.637c-1.146-1.134-2.651-1.7-4.519-1.7c-2.157,0-3.88,0.855-5.169,2.567
		c-0.823,1.067-1.346,2.657-1.567,4.77H222.138z"/>
	<path fill="#0D47A1" d="M240.333,59.973h12.707v5.803c1.223-2.512,2.484-4.24,3.785-5.186c1.301-0.944,2.906-1.417,4.818-1.417
		c2.001,0,4.19,0.622,6.57,1.867l-4.203,9.671c-1.6-0.667-2.867-1-3.801-1c-1.779,0-3.158,0.733-4.136,2.201
		c-1.4,2.067-2.101,5.936-2.101,11.605V95.39h-13.641V59.973z"/>
	<path fill="#0D47A1" d="M268.601,46.5h13.707v16.941c1.355-1.423,2.896-2.49,4.619-3.202c1.723-0.711,3.629-1.066,5.719-1.066
		c4.313,0,7.881,1.551,10.705,4.651c2.823,3.102,4.235,7.554,4.235,13.356c0,3.869-0.646,7.276-1.935,10.222
		c-1.289,2.946-3.074,5.147-5.352,6.604c-2.279,1.456-4.809,2.185-7.588,2.185c-2.379,0-4.558-0.512-6.536-1.534
		c-1.489-0.801-3.112-2.302-4.869-4.502v5.235h-12.706V46.5z M282.207,77.582c0,3.046,0.572,5.253,1.718,6.62
		c1.145,1.367,2.596,2.051,4.352,2.051c1.623,0,2.985-0.672,4.086-2.018c1.1-1.345,1.65-3.607,1.65-6.786
		c0-2.802-0.539-4.858-1.617-6.17s-2.385-1.968-3.918-1.968c-1.846,0-3.352,0.684-4.52,2.051
		C282.791,72.729,282.207,74.803,282.207,77.582z"/>
	<path fill="#0D47A1" d="M310.441,77.782c0-5.402,1.823-9.854,5.47-13.356c3.646-3.502,8.571-5.252,14.773-5.252
		c7.093,0,12.45,2.057,16.075,6.169c2.912,3.313,4.368,7.393,4.368,12.239c0,5.447-1.807,9.91-5.419,13.39
		c-3.613,3.479-8.61,5.22-14.99,5.22c-5.692,0-10.295-1.445-13.807-4.336C312.597,88.276,310.441,83.584,310.441,77.782z
		 M324.048,77.749c0,3.157,0.639,5.491,1.917,7.003c1.278,1.513,2.885,2.268,4.819,2.268c1.955,0,3.563-0.744,4.818-2.234
		c1.256-1.489,1.885-3.879,1.885-7.17c0-3.067-0.634-5.353-1.901-6.853c-1.267-1.501-2.835-2.252-4.702-2.252
		c-1.979,0-3.613,0.763-4.902,2.285S324.048,74.636,324.048,77.749z"/>
	<path fill="#0D47A1" d="M354.015,77.782c0-5.402,1.823-9.854,5.47-13.356c3.646-3.502,8.571-5.252,14.773-5.252
		c7.093,0,12.45,2.057,16.075,6.169c2.912,3.313,4.368,7.393,4.368,12.239c0,5.447-1.807,9.91-5.419,13.39
		c-3.613,3.479-8.61,5.22-14.99,5.22c-5.692,0-10.295-1.445-13.807-4.336C356.171,88.276,354.015,83.584,354.015,77.782z
		 M367.622,77.749c0,3.157,0.639,5.491,1.917,7.003c1.278,1.513,2.885,2.268,4.819,2.268c1.955,0,3.563-0.744,4.818-2.234
		c1.256-1.489,1.885-3.879,1.885-7.17c0-3.067-0.634-5.353-1.901-6.853c-1.267-1.501-2.835-2.252-4.702-2.252
		c-1.979,0-3.613,0.763-4.902,2.285S367.622,74.636,367.622,77.749z"/>
	<path fill="#0D47A1" d="M399.257,46.5h13.873v25.235l10.139-11.763h16.707l-12.705,12.406L440.71,95.39h-15.293l-7.174-14.197
		l-5.113,4.993v9.204h-13.873V46.5z"/>
</g>
</svg>
